<mxfile host="app.diagrams.net" modified="2021-05-26T08:25:38.717Z" agent="5.0 (Windows NT 10.0; Win64; x64) AppleWebKit/537.36 (KHTML, like Gecko) Chrome/85.0.4183.102 Safari/537.36" etag="RarSV2YWy_WotScYflLl" version="14.7.1" type="github">
  <diagram id="zv32uZ1Fh9oxu-Qdz-iJ" name="Page-1">
    <mxGraphModel dx="1422" dy="762" grid="1" gridSize="10" guides="1" tooltips="1" connect="1" arrows="1" fold="1" page="1" pageScale="1" pageWidth="1100" pageHeight="850" math="0" shadow="0">
      <root>
        <mxCell id="0" />
        <mxCell id="1" parent="0" />
        <mxCell id="-c6-doeArxdfNpNEhUAH-1" value="A" style="ellipse;whiteSpace=wrap;html=1;aspect=fixed;" vertex="1" parent="1">
          <mxGeometry x="210" y="50" width="50" height="50" as="geometry" />
        </mxCell>
        <mxCell id="-c6-doeArxdfNpNEhUAH-3" value="Limit&amp;nbsp; 0" style="text;html=1;align=center;verticalAlign=middle;resizable=0;points=[];autosize=1;strokeColor=none;" vertex="1" parent="1">
          <mxGeometry x="50" y="65" width="50" height="20" as="geometry" />
        </mxCell>
        <mxCell id="-c6-doeArxdfNpNEhUAH-5" value="B" style="ellipse;whiteSpace=wrap;html=1;aspect=fixed;" vertex="1" parent="1">
          <mxGeometry x="420" y="212.5" width="50" height="50" as="geometry" />
        </mxCell>
        <mxCell id="-c6-doeArxdfNpNEhUAH-6" value="" style="ellipse;whiteSpace=wrap;html=1;aspect=fixed;" vertex="1" parent="1">
          <mxGeometry x="870" y="5" width="50" height="50" as="geometry" />
        </mxCell>
        <mxCell id="-c6-doeArxdfNpNEhUAH-10" value="" style="strokeWidth=2;html=1;shape=mxgraph.flowchart.extract_or_measurement;whiteSpace=wrap;rotation=90;fillColor=#fff2cc;strokeColor=#d6b656;" vertex="1" parent="1">
          <mxGeometry x="167.5" y="42.5" width="30" height="35" as="geometry" />
        </mxCell>
        <mxCell id="-c6-doeArxdfNpNEhUAH-11" value="" style="endArrow=classic;html=1;" edge="1" parent="1">
          <mxGeometry width="50" height="50" relative="1" as="geometry">
            <mxPoint x="210" y="85" as="sourcePoint" />
            <mxPoint x="190" y="110" as="targetPoint" />
          </mxGeometry>
        </mxCell>
        <mxCell id="-c6-doeArxdfNpNEhUAH-13" value="" style="endArrow=classic;html=1;exitX=1;exitY=1;exitDx=0;exitDy=0;" edge="1" parent="1" source="-c6-doeArxdfNpNEhUAH-1">
          <mxGeometry width="50" height="50" relative="1" as="geometry">
            <mxPoint x="290" y="90" as="sourcePoint" />
            <mxPoint x="270" y="115" as="targetPoint" />
          </mxGeometry>
        </mxCell>
        <mxCell id="-c6-doeArxdfNpNEhUAH-14" value="A" style="ellipse;whiteSpace=wrap;html=1;aspect=fixed;fillColor=#a20025;strokeColor=#6F0000;fontColor=#ffffff;" vertex="1" parent="1">
          <mxGeometry x="470" y="55" width="50" height="50" as="geometry" />
        </mxCell>
        <mxCell id="-c6-doeArxdfNpNEhUAH-15" value="" style="endArrow=classic;html=1;" edge="1" parent="1">
          <mxGeometry width="50" height="50" relative="1" as="geometry">
            <mxPoint x="470" y="90" as="sourcePoint" />
            <mxPoint x="450" y="115" as="targetPoint" />
          </mxGeometry>
        </mxCell>
        <mxCell id="-c6-doeArxdfNpNEhUAH-16" value="" style="endArrow=classic;html=1;exitX=1;exitY=1;exitDx=0;exitDy=0;" edge="1" source="-c6-doeArxdfNpNEhUAH-14" parent="1">
          <mxGeometry width="50" height="50" relative="1" as="geometry">
            <mxPoint x="550" y="95" as="sourcePoint" />
            <mxPoint x="530" y="120" as="targetPoint" />
          </mxGeometry>
        </mxCell>
        <mxCell id="-c6-doeArxdfNpNEhUAH-17" value="A" style="ellipse;whiteSpace=wrap;html=1;aspect=fixed;" vertex="1" parent="1">
          <mxGeometry x="215" y="162.5" width="50" height="50" as="geometry" />
        </mxCell>
        <mxCell id="-c6-doeArxdfNpNEhUAH-18" value="" style="endArrow=classic;html=1;" edge="1" parent="1">
          <mxGeometry width="50" height="50" relative="1" as="geometry">
            <mxPoint x="215" y="197.5" as="sourcePoint" />
            <mxPoint x="195" y="222.5" as="targetPoint" />
          </mxGeometry>
        </mxCell>
        <mxCell id="-c6-doeArxdfNpNEhUAH-19" value="" style="endArrow=classic;html=1;exitX=1;exitY=1;exitDx=0;exitDy=0;" edge="1" source="-c6-doeArxdfNpNEhUAH-17" parent="1">
          <mxGeometry width="50" height="50" relative="1" as="geometry">
            <mxPoint x="295" y="202.5" as="sourcePoint" />
            <mxPoint x="275" y="227.5" as="targetPoint" />
          </mxGeometry>
        </mxCell>
        <mxCell id="-c6-doeArxdfNpNEhUAH-21" value="Limit 1&amp;nbsp;" style="text;html=1;align=center;verticalAlign=middle;resizable=0;points=[];autosize=1;strokeColor=none;" vertex="1" parent="1">
          <mxGeometry x="45" y="180" width="50" height="20" as="geometry" />
        </mxCell>
        <mxCell id="-c6-doeArxdfNpNEhUAH-22" value="" style="strokeWidth=2;html=1;shape=mxgraph.flowchart.extract_or_measurement;whiteSpace=wrap;rotation=90;fillColor=#fff2cc;strokeColor=#d6b656;" vertex="1" parent="1">
          <mxGeometry x="170" y="170" width="30" height="20" as="geometry" />
        </mxCell>
        <mxCell id="-c6-doeArxdfNpNEhUAH-23" value="A" style="ellipse;whiteSpace=wrap;html=1;aspect=fixed;fillColor=#ffe6cc;strokeColor=#d79b00;" vertex="1" parent="1">
          <mxGeometry x="475" y="155" width="50" height="50" as="geometry" />
        </mxCell>
        <mxCell id="-c6-doeArxdfNpNEhUAH-24" value="" style="endArrow=classic;html=1;fillColor=#ffe6cc;strokeColor=#d79b00;" edge="1" parent="1">
          <mxGeometry width="50" height="50" relative="1" as="geometry">
            <mxPoint x="475" y="190" as="sourcePoint" />
            <mxPoint x="455" y="215" as="targetPoint" />
          </mxGeometry>
        </mxCell>
        <mxCell id="-c6-doeArxdfNpNEhUAH-25" value="" style="endArrow=classic;html=1;exitX=1;exitY=1;exitDx=0;exitDy=0;fillColor=#ffe6cc;strokeColor=#d79b00;" edge="1" source="-c6-doeArxdfNpNEhUAH-23" parent="1">
          <mxGeometry width="50" height="50" relative="1" as="geometry">
            <mxPoint x="555" y="195" as="sourcePoint" />
            <mxPoint x="535" y="220" as="targetPoint" />
          </mxGeometry>
        </mxCell>
        <mxCell id="-c6-doeArxdfNpNEhUAH-26" value="" style="strokeWidth=2;html=1;shape=mxgraph.flowchart.extract_or_measurement;whiteSpace=wrap;rotation=90;fillColor=#fff2cc;strokeColor=#d6b656;" vertex="1" parent="1">
          <mxGeometry x="390" y="227.5" width="30" height="20" as="geometry" />
        </mxCell>
        <mxCell id="-c6-doeArxdfNpNEhUAH-27" value="C" style="ellipse;whiteSpace=wrap;html=1;aspect=fixed;" vertex="1" parent="1">
          <mxGeometry x="530" y="212.5" width="50" height="50" as="geometry" />
        </mxCell>
        <mxCell id="-c6-doeArxdfNpNEhUAH-28" value="B" style="ellipse;whiteSpace=wrap;html=1;aspect=fixed;fillColor=#a20025;strokeColor=#6F0000;fontColor=#ffffff;" vertex="1" parent="1">
          <mxGeometry x="690" y="212.5" width="50" height="50" as="geometry" />
        </mxCell>
        <mxCell id="-c6-doeArxdfNpNEhUAH-29" value="A" style="ellipse;whiteSpace=wrap;html=1;aspect=fixed;fillColor=#ffe6cc;strokeColor=#d79b00;" vertex="1" parent="1">
          <mxGeometry x="745" y="155" width="50" height="50" as="geometry" />
        </mxCell>
        <mxCell id="-c6-doeArxdfNpNEhUAH-30" value="" style="endArrow=classic;html=1;fillColor=#ffe6cc;strokeColor=#d79b00;" edge="1" parent="1">
          <mxGeometry width="50" height="50" relative="1" as="geometry">
            <mxPoint x="745" y="190" as="sourcePoint" />
            <mxPoint x="725" y="215" as="targetPoint" />
          </mxGeometry>
        </mxCell>
        <mxCell id="-c6-doeArxdfNpNEhUAH-31" value="" style="endArrow=classic;html=1;exitX=1;exitY=1;exitDx=0;exitDy=0;fillColor=#ffe6cc;strokeColor=#d79b00;" edge="1" source="-c6-doeArxdfNpNEhUAH-29" parent="1">
          <mxGeometry width="50" height="50" relative="1" as="geometry">
            <mxPoint x="825" y="195" as="sourcePoint" />
            <mxPoint x="805" y="220" as="targetPoint" />
          </mxGeometry>
        </mxCell>
        <mxCell id="-c6-doeArxdfNpNEhUAH-32" value="" style="strokeWidth=2;html=1;shape=mxgraph.flowchart.extract_or_measurement;whiteSpace=wrap;rotation=90;fillColor=#fff2cc;strokeColor=#d6b656;" vertex="1" parent="1">
          <mxGeometry x="770" y="227.5" width="30" height="20" as="geometry" />
        </mxCell>
        <mxCell id="-c6-doeArxdfNpNEhUAH-33" value="C" style="ellipse;whiteSpace=wrap;html=1;aspect=fixed;" vertex="1" parent="1">
          <mxGeometry x="800" y="212.5" width="50" height="50" as="geometry" />
        </mxCell>
        <mxCell id="-c6-doeArxdfNpNEhUAH-34" value="B" style="ellipse;whiteSpace=wrap;html=1;aspect=fixed;fillColor=#a20025;strokeColor=#6F0000;fontColor=#ffffff;" vertex="1" parent="1">
          <mxGeometry x="910" y="212.5" width="50" height="50" as="geometry" />
        </mxCell>
        <mxCell id="-c6-doeArxdfNpNEhUAH-35" value="A" style="ellipse;whiteSpace=wrap;html=1;aspect=fixed;fillColor=#ffe6cc;strokeColor=#d79b00;" vertex="1" parent="1">
          <mxGeometry x="965" y="155" width="50" height="50" as="geometry" />
        </mxCell>
        <mxCell id="-c6-doeArxdfNpNEhUAH-36" value="" style="endArrow=classic;html=1;fillColor=#ffe6cc;strokeColor=#d79b00;" edge="1" parent="1">
          <mxGeometry width="50" height="50" relative="1" as="geometry">
            <mxPoint x="965" y="190" as="sourcePoint" />
            <mxPoint x="945" y="215" as="targetPoint" />
          </mxGeometry>
        </mxCell>
        <mxCell id="-c6-doeArxdfNpNEhUAH-37" value="" style="endArrow=classic;html=1;exitX=1;exitY=1;exitDx=0;exitDy=0;fillColor=#ffe6cc;strokeColor=#d79b00;" edge="1" source="-c6-doeArxdfNpNEhUAH-35" parent="1">
          <mxGeometry width="50" height="50" relative="1" as="geometry">
            <mxPoint x="1045" y="195" as="sourcePoint" />
            <mxPoint x="1025" y="220" as="targetPoint" />
          </mxGeometry>
        </mxCell>
        <mxCell id="-c6-doeArxdfNpNEhUAH-39" value="C" style="ellipse;whiteSpace=wrap;html=1;aspect=fixed;fillColor=#a20025;strokeColor=#6F0000;fontColor=#ffffff;" vertex="1" parent="1">
          <mxGeometry x="1020" y="212.5" width="50" height="50" as="geometry" />
        </mxCell>
        <mxCell id="-c6-doeArxdfNpNEhUAH-45" value="limit 2" style="text;html=1;align=center;verticalAlign=middle;resizable=0;points=[];autosize=1;strokeColor=none;" vertex="1" parent="1">
          <mxGeometry x="35" y="370" width="50" height="20" as="geometry" />
        </mxCell>
        <mxCell id="-c6-doeArxdfNpNEhUAH-46" value="A" style="ellipse;whiteSpace=wrap;html=1;aspect=fixed;" vertex="1" parent="1">
          <mxGeometry x="205" y="347.5" width="50" height="50" as="geometry" />
        </mxCell>
        <mxCell id="-c6-doeArxdfNpNEhUAH-47" value="" style="endArrow=classic;html=1;" edge="1" parent="1">
          <mxGeometry width="50" height="50" relative="1" as="geometry">
            <mxPoint x="205" y="382.5" as="sourcePoint" />
            <mxPoint x="185" y="407.5" as="targetPoint" />
          </mxGeometry>
        </mxCell>
        <mxCell id="-c6-doeArxdfNpNEhUAH-48" value="" style="endArrow=classic;html=1;exitX=1;exitY=1;exitDx=0;exitDy=0;" edge="1" source="-c6-doeArxdfNpNEhUAH-46" parent="1">
          <mxGeometry width="50" height="50" relative="1" as="geometry">
            <mxPoint x="285" y="387.5" as="sourcePoint" />
            <mxPoint x="265" y="412.5" as="targetPoint" />
          </mxGeometry>
        </mxCell>
        <mxCell id="-c6-doeArxdfNpNEhUAH-49" value="" style="strokeWidth=2;html=1;shape=mxgraph.flowchart.extract_or_measurement;whiteSpace=wrap;rotation=90;fillColor=#fff2cc;strokeColor=#d6b656;" vertex="1" parent="1">
          <mxGeometry x="160" y="355" width="30" height="20" as="geometry" />
        </mxCell>
        <mxCell id="-c6-doeArxdfNpNEhUAH-50" value="B" style="ellipse;whiteSpace=wrap;html=1;aspect=fixed;" vertex="1" parent="1">
          <mxGeometry x="410" y="368.75" width="50" height="50" as="geometry" />
        </mxCell>
        <mxCell id="-c6-doeArxdfNpNEhUAH-51" value="A" style="ellipse;whiteSpace=wrap;html=1;aspect=fixed;fillColor=#ffe6cc;strokeColor=#d79b00;" vertex="1" parent="1">
          <mxGeometry x="465" y="311.25" width="50" height="50" as="geometry" />
        </mxCell>
        <mxCell id="-c6-doeArxdfNpNEhUAH-52" value="" style="endArrow=classic;html=1;fillColor=#ffe6cc;strokeColor=#d79b00;" edge="1" parent="1">
          <mxGeometry width="50" height="50" relative="1" as="geometry">
            <mxPoint x="465" y="346.25" as="sourcePoint" />
            <mxPoint x="445" y="371.25" as="targetPoint" />
          </mxGeometry>
        </mxCell>
        <mxCell id="-c6-doeArxdfNpNEhUAH-53" value="" style="endArrow=classic;html=1;exitX=1;exitY=1;exitDx=0;exitDy=0;fillColor=#ffe6cc;strokeColor=#d79b00;" edge="1" source="-c6-doeArxdfNpNEhUAH-51" parent="1">
          <mxGeometry width="50" height="50" relative="1" as="geometry">
            <mxPoint x="545" y="351.25" as="sourcePoint" />
            <mxPoint x="525" y="376.25" as="targetPoint" />
          </mxGeometry>
        </mxCell>
        <mxCell id="-c6-doeArxdfNpNEhUAH-54" value="" style="strokeWidth=2;html=1;shape=mxgraph.flowchart.extract_or_measurement;whiteSpace=wrap;rotation=90;fillColor=#fff2cc;strokeColor=#d6b656;" vertex="1" parent="1">
          <mxGeometry x="380" y="383.75" width="30" height="20" as="geometry" />
        </mxCell>
        <mxCell id="-c6-doeArxdfNpNEhUAH-55" value="C" style="ellipse;whiteSpace=wrap;html=1;aspect=fixed;" vertex="1" parent="1">
          <mxGeometry x="520" y="368.75" width="50" height="50" as="geometry" />
        </mxCell>
        <mxCell id="-c6-doeArxdfNpNEhUAH-56" value="B" style="ellipse;whiteSpace=wrap;html=1;aspect=fixed;fillColor=#a20025;strokeColor=#6F0000;fontColor=#ffffff;" vertex="1" parent="1">
          <mxGeometry x="700" y="367.5" width="50" height="50" as="geometry" />
        </mxCell>
        <mxCell id="-c6-doeArxdfNpNEhUAH-57" value="A" style="ellipse;whiteSpace=wrap;html=1;aspect=fixed;fillColor=#ffe6cc;strokeColor=#d79b00;" vertex="1" parent="1">
          <mxGeometry x="755" y="310" width="50" height="50" as="geometry" />
        </mxCell>
        <mxCell id="-c6-doeArxdfNpNEhUAH-58" value="" style="endArrow=classic;html=1;fillColor=#ffe6cc;strokeColor=#d79b00;" edge="1" parent="1">
          <mxGeometry width="50" height="50" relative="1" as="geometry">
            <mxPoint x="755" y="345" as="sourcePoint" />
            <mxPoint x="735" y="370" as="targetPoint" />
          </mxGeometry>
        </mxCell>
        <mxCell id="-c6-doeArxdfNpNEhUAH-59" value="" style="endArrow=classic;html=1;exitX=1;exitY=1;exitDx=0;exitDy=0;fillColor=#ffe6cc;strokeColor=#d79b00;" edge="1" source="-c6-doeArxdfNpNEhUAH-57" parent="1">
          <mxGeometry width="50" height="50" relative="1" as="geometry">
            <mxPoint x="835" y="350" as="sourcePoint" />
            <mxPoint x="815" y="375" as="targetPoint" />
          </mxGeometry>
        </mxCell>
        <mxCell id="-c6-doeArxdfNpNEhUAH-60" value="" style="strokeWidth=2;html=1;shape=mxgraph.flowchart.extract_or_measurement;whiteSpace=wrap;rotation=90;fillColor=#fff2cc;strokeColor=#d6b656;" vertex="1" parent="1">
          <mxGeometry x="780" y="382.5" width="30" height="20" as="geometry" />
        </mxCell>
        <mxCell id="-c6-doeArxdfNpNEhUAH-61" value="C" style="ellipse;whiteSpace=wrap;html=1;aspect=fixed;" vertex="1" parent="1">
          <mxGeometry x="810" y="367.5" width="50" height="50" as="geometry" />
        </mxCell>
        <mxCell id="-c6-doeArxdfNpNEhUAH-62" value="B" style="ellipse;whiteSpace=wrap;html=1;aspect=fixed;fillColor=#a20025;strokeColor=#6F0000;fontColor=#ffffff;" vertex="1" parent="1">
          <mxGeometry x="155" y="557.5" width="50" height="50" as="geometry" />
        </mxCell>
        <mxCell id="-c6-doeArxdfNpNEhUAH-63" value="A" style="ellipse;whiteSpace=wrap;html=1;aspect=fixed;fillColor=#ffe6cc;strokeColor=#d79b00;" vertex="1" parent="1">
          <mxGeometry x="210" y="500" width="50" height="50" as="geometry" />
        </mxCell>
        <mxCell id="-c6-doeArxdfNpNEhUAH-64" value="" style="endArrow=classic;html=1;fillColor=#ffe6cc;strokeColor=#d79b00;" edge="1" parent="1">
          <mxGeometry width="50" height="50" relative="1" as="geometry">
            <mxPoint x="210" y="535" as="sourcePoint" />
            <mxPoint x="190" y="560" as="targetPoint" />
          </mxGeometry>
        </mxCell>
        <mxCell id="-c6-doeArxdfNpNEhUAH-65" value="" style="endArrow=classic;html=1;exitX=1;exitY=1;exitDx=0;exitDy=0;fillColor=#ffe6cc;strokeColor=#d79b00;" edge="1" source="-c6-doeArxdfNpNEhUAH-63" parent="1">
          <mxGeometry width="50" height="50" relative="1" as="geometry">
            <mxPoint x="290" y="540" as="sourcePoint" />
            <mxPoint x="270" y="565" as="targetPoint" />
          </mxGeometry>
        </mxCell>
        <mxCell id="-c6-doeArxdfNpNEhUAH-66" value="" style="strokeWidth=2;html=1;shape=mxgraph.flowchart.extract_or_measurement;whiteSpace=wrap;rotation=90;fillColor=#fff2cc;strokeColor=#d6b656;" vertex="1" parent="1">
          <mxGeometry x="175" y="655" width="30" height="20" as="geometry" />
        </mxCell>
        <mxCell id="-c6-doeArxdfNpNEhUAH-67" value="C" style="ellipse;whiteSpace=wrap;html=1;aspect=fixed;fillColor=#ffe6cc;strokeColor=#d79b00;" vertex="1" parent="1">
          <mxGeometry x="265" y="557.5" width="50" height="50" as="geometry" />
        </mxCell>
        <mxCell id="-c6-doeArxdfNpNEhUAH-68" value="" style="endArrow=classic;html=1;fillColor=#ffe6cc;strokeColor=#d79b00;" edge="1" parent="1">
          <mxGeometry width="50" height="50" relative="1" as="geometry">
            <mxPoint x="275" y="600" as="sourcePoint" />
            <mxPoint x="240" y="640" as="targetPoint" />
          </mxGeometry>
        </mxCell>
        <mxCell id="-c6-doeArxdfNpNEhUAH-69" value="" style="endArrow=classic;html=1;fillColor=#ffe6cc;strokeColor=#d79b00;" edge="1" parent="1">
          <mxGeometry width="50" height="50" relative="1" as="geometry">
            <mxPoint x="310" y="600" as="sourcePoint" />
            <mxPoint x="350" y="640" as="targetPoint" />
          </mxGeometry>
        </mxCell>
        <mxCell id="-c6-doeArxdfNpNEhUAH-70" value="D" style="ellipse;whiteSpace=wrap;html=1;aspect=fixed;" vertex="1" parent="1">
          <mxGeometry x="205" y="640" width="50" height="50" as="geometry" />
        </mxCell>
        <mxCell id="-c6-doeArxdfNpNEhUAH-71" value="E" style="ellipse;whiteSpace=wrap;html=1;aspect=fixed;" vertex="1" parent="1">
          <mxGeometry x="330" y="640" width="50" height="50" as="geometry" />
        </mxCell>
        <mxCell id="-c6-doeArxdfNpNEhUAH-72" value="B" style="ellipse;whiteSpace=wrap;html=1;aspect=fixed;fillColor=#a20025;strokeColor=#6F0000;fontColor=#ffffff;" vertex="1" parent="1">
          <mxGeometry x="460" y="557.5" width="50" height="50" as="geometry" />
        </mxCell>
        <mxCell id="-c6-doeArxdfNpNEhUAH-73" value="A" style="ellipse;whiteSpace=wrap;html=1;aspect=fixed;fillColor=#ffe6cc;strokeColor=#d79b00;" vertex="1" parent="1">
          <mxGeometry x="515" y="500" width="50" height="50" as="geometry" />
        </mxCell>
        <mxCell id="-c6-doeArxdfNpNEhUAH-74" value="" style="endArrow=classic;html=1;fillColor=#ffe6cc;strokeColor=#d79b00;" edge="1" parent="1">
          <mxGeometry width="50" height="50" relative="1" as="geometry">
            <mxPoint x="515" y="535" as="sourcePoint" />
            <mxPoint x="495" y="560" as="targetPoint" />
          </mxGeometry>
        </mxCell>
        <mxCell id="-c6-doeArxdfNpNEhUAH-75" value="" style="endArrow=classic;html=1;exitX=1;exitY=1;exitDx=0;exitDy=0;fillColor=#ffe6cc;strokeColor=#d79b00;" edge="1" source="-c6-doeArxdfNpNEhUAH-73" parent="1">
          <mxGeometry width="50" height="50" relative="1" as="geometry">
            <mxPoint x="595" y="540" as="sourcePoint" />
            <mxPoint x="575" y="565" as="targetPoint" />
          </mxGeometry>
        </mxCell>
        <mxCell id="-c6-doeArxdfNpNEhUAH-76" value="" style="strokeWidth=2;html=1;shape=mxgraph.flowchart.extract_or_measurement;whiteSpace=wrap;rotation=90;fillColor=#fff2cc;strokeColor=#d6b656;" vertex="1" parent="1">
          <mxGeometry x="610" y="655" width="30" height="20" as="geometry" />
        </mxCell>
        <mxCell id="-c6-doeArxdfNpNEhUAH-77" value="C" style="ellipse;whiteSpace=wrap;html=1;aspect=fixed;fillColor=#ffe6cc;strokeColor=#d79b00;" vertex="1" parent="1">
          <mxGeometry x="570" y="557.5" width="50" height="50" as="geometry" />
        </mxCell>
        <mxCell id="-c6-doeArxdfNpNEhUAH-78" value="" style="endArrow=classic;html=1;fillColor=#ffe6cc;strokeColor=#d79b00;" edge="1" parent="1">
          <mxGeometry width="50" height="50" relative="1" as="geometry">
            <mxPoint x="580" y="600" as="sourcePoint" />
            <mxPoint x="545" y="640" as="targetPoint" />
          </mxGeometry>
        </mxCell>
        <mxCell id="-c6-doeArxdfNpNEhUAH-79" value="" style="endArrow=classic;html=1;fillColor=#ffe6cc;strokeColor=#d79b00;" edge="1" parent="1">
          <mxGeometry width="50" height="50" relative="1" as="geometry">
            <mxPoint x="615" y="600" as="sourcePoint" />
            <mxPoint x="655" y="640" as="targetPoint" />
          </mxGeometry>
        </mxCell>
        <mxCell id="-c6-doeArxdfNpNEhUAH-80" value="D" style="ellipse;whiteSpace=wrap;html=1;aspect=fixed;fillColor=#a20025;strokeColor=#6F0000;fontColor=#ffffff;" vertex="1" parent="1">
          <mxGeometry x="510" y="640" width="50" height="50" as="geometry" />
        </mxCell>
        <mxCell id="-c6-doeArxdfNpNEhUAH-81" value="E" style="ellipse;whiteSpace=wrap;html=1;aspect=fixed;" vertex="1" parent="1">
          <mxGeometry x="635" y="640" width="50" height="50" as="geometry" />
        </mxCell>
        <mxCell id="-c6-doeArxdfNpNEhUAH-83" value="B" style="ellipse;whiteSpace=wrap;html=1;aspect=fixed;fillColor=#a20025;strokeColor=#6F0000;fontColor=#ffffff;" vertex="1" parent="1">
          <mxGeometry x="712.5" y="557.5" width="50" height="50" as="geometry" />
        </mxCell>
        <mxCell id="-c6-doeArxdfNpNEhUAH-84" value="A" style="ellipse;whiteSpace=wrap;html=1;aspect=fixed;fillColor=#ffe6cc;strokeColor=#d79b00;" vertex="1" parent="1">
          <mxGeometry x="767.5" y="500" width="50" height="50" as="geometry" />
        </mxCell>
        <mxCell id="-c6-doeArxdfNpNEhUAH-85" value="" style="endArrow=classic;html=1;fillColor=#ffe6cc;strokeColor=#d79b00;" edge="1" parent="1">
          <mxGeometry width="50" height="50" relative="1" as="geometry">
            <mxPoint x="767.5" y="535" as="sourcePoint" />
            <mxPoint x="747.5" y="560" as="targetPoint" />
          </mxGeometry>
        </mxCell>
        <mxCell id="-c6-doeArxdfNpNEhUAH-86" value="" style="endArrow=classic;html=1;exitX=1;exitY=1;exitDx=0;exitDy=0;fillColor=#ffe6cc;strokeColor=#d79b00;" edge="1" source="-c6-doeArxdfNpNEhUAH-84" parent="1">
          <mxGeometry width="50" height="50" relative="1" as="geometry">
            <mxPoint x="847.5" y="540" as="sourcePoint" />
            <mxPoint x="827.5" y="565" as="targetPoint" />
          </mxGeometry>
        </mxCell>
        <mxCell id="-c6-doeArxdfNpNEhUAH-87" value="" style="strokeWidth=2;html=1;shape=mxgraph.flowchart.extract_or_measurement;whiteSpace=wrap;rotation=90;fillColor=#fff2cc;strokeColor=#d6b656;" vertex="1" parent="1">
          <mxGeometry x="862.5" y="655" width="30" height="20" as="geometry" />
        </mxCell>
        <mxCell id="-c6-doeArxdfNpNEhUAH-88" value="C" style="ellipse;whiteSpace=wrap;html=1;aspect=fixed;fillColor=#ffe6cc;strokeColor=#d79b00;" vertex="1" parent="1">
          <mxGeometry x="822.5" y="557.5" width="50" height="50" as="geometry" />
        </mxCell>
        <mxCell id="-c6-doeArxdfNpNEhUAH-89" value="" style="endArrow=classic;html=1;fillColor=#ffe6cc;strokeColor=#d79b00;" edge="1" parent="1">
          <mxGeometry width="50" height="50" relative="1" as="geometry">
            <mxPoint x="832.5" y="600" as="sourcePoint" />
            <mxPoint x="797.5" y="640" as="targetPoint" />
          </mxGeometry>
        </mxCell>
        <mxCell id="-c6-doeArxdfNpNEhUAH-90" value="" style="endArrow=classic;html=1;fillColor=#ffe6cc;strokeColor=#d79b00;" edge="1" parent="1">
          <mxGeometry width="50" height="50" relative="1" as="geometry">
            <mxPoint x="867.5" y="600" as="sourcePoint" />
            <mxPoint x="907.5" y="640" as="targetPoint" />
          </mxGeometry>
        </mxCell>
        <mxCell id="-c6-doeArxdfNpNEhUAH-91" value="D" style="ellipse;whiteSpace=wrap;html=1;aspect=fixed;fillColor=#a20025;strokeColor=#6F0000;fontColor=#ffffff;" vertex="1" parent="1">
          <mxGeometry x="762.5" y="640" width="50" height="50" as="geometry" />
        </mxCell>
        <mxCell id="-c6-doeArxdfNpNEhUAH-92" value="E" style="ellipse;whiteSpace=wrap;html=1;aspect=fixed;fillColor=#a20025;strokeColor=#6F0000;fontColor=#ffffff;" vertex="1" parent="1">
          <mxGeometry x="887.5" y="640" width="50" height="50" as="geometry" />
        </mxCell>
        <mxCell id="-c6-doeArxdfNpNEhUAH-95" value="limit 3" style="text;html=1;align=center;verticalAlign=middle;resizable=0;points=[];autosize=1;strokeColor=none;" vertex="1" parent="1">
          <mxGeometry x="35" y="890" width="50" height="20" as="geometry" />
        </mxCell>
        <mxCell id="-c6-doeArxdfNpNEhUAH-97" value="A" style="ellipse;whiteSpace=wrap;html=1;aspect=fixed;" vertex="1" parent="1">
          <mxGeometry x="201.25" y="957.5" width="50" height="50" as="geometry" />
        </mxCell>
        <mxCell id="-c6-doeArxdfNpNEhUAH-98" value="" style="endArrow=classic;html=1;" edge="1" parent="1">
          <mxGeometry width="50" height="50" relative="1" as="geometry">
            <mxPoint x="201.25" y="992.5" as="sourcePoint" />
            <mxPoint x="181.25" y="1017.5" as="targetPoint" />
          </mxGeometry>
        </mxCell>
        <mxCell id="-c6-doeArxdfNpNEhUAH-99" value="" style="endArrow=classic;html=1;exitX=1;exitY=1;exitDx=0;exitDy=0;" edge="1" source="-c6-doeArxdfNpNEhUAH-97" parent="1">
          <mxGeometry width="50" height="50" relative="1" as="geometry">
            <mxPoint x="281.25" y="997.5" as="sourcePoint" />
            <mxPoint x="261.25" y="1022.5" as="targetPoint" />
          </mxGeometry>
        </mxCell>
        <mxCell id="-c6-doeArxdfNpNEhUAH-100" value="" style="strokeWidth=2;html=1;shape=mxgraph.flowchart.extract_or_measurement;whiteSpace=wrap;rotation=90;fillColor=#fff2cc;strokeColor=#d6b656;" vertex="1" parent="1">
          <mxGeometry x="156.25" y="965" width="30" height="20" as="geometry" />
        </mxCell>
        <mxCell id="-c6-doeArxdfNpNEhUAH-101" value="B" style="ellipse;whiteSpace=wrap;html=1;aspect=fixed;" vertex="1" parent="1">
          <mxGeometry x="406.25" y="978.75" width="50" height="50" as="geometry" />
        </mxCell>
        <mxCell id="-c6-doeArxdfNpNEhUAH-102" value="A" style="ellipse;whiteSpace=wrap;html=1;aspect=fixed;fillColor=#ffe6cc;strokeColor=#d79b00;" vertex="1" parent="1">
          <mxGeometry x="461.25" y="921.25" width="50" height="50" as="geometry" />
        </mxCell>
        <mxCell id="-c6-doeArxdfNpNEhUAH-103" value="" style="endArrow=classic;html=1;fillColor=#ffe6cc;strokeColor=#d79b00;" edge="1" parent="1">
          <mxGeometry width="50" height="50" relative="1" as="geometry">
            <mxPoint x="461.25" y="956.25" as="sourcePoint" />
            <mxPoint x="441.25" y="981.25" as="targetPoint" />
          </mxGeometry>
        </mxCell>
        <mxCell id="-c6-doeArxdfNpNEhUAH-104" value="" style="endArrow=classic;html=1;exitX=1;exitY=1;exitDx=0;exitDy=0;fillColor=#ffe6cc;strokeColor=#d79b00;" edge="1" source="-c6-doeArxdfNpNEhUAH-102" parent="1">
          <mxGeometry width="50" height="50" relative="1" as="geometry">
            <mxPoint x="541.25" y="961.25" as="sourcePoint" />
            <mxPoint x="521.25" y="986.25" as="targetPoint" />
          </mxGeometry>
        </mxCell>
        <mxCell id="-c6-doeArxdfNpNEhUAH-105" value="" style="strokeWidth=2;html=1;shape=mxgraph.flowchart.extract_or_measurement;whiteSpace=wrap;rotation=90;fillColor=#fff2cc;strokeColor=#d6b656;" vertex="1" parent="1">
          <mxGeometry x="376.25" y="993.75" width="30" height="20" as="geometry" />
        </mxCell>
        <mxCell id="-c6-doeArxdfNpNEhUAH-106" value="C" style="ellipse;whiteSpace=wrap;html=1;aspect=fixed;" vertex="1" parent="1">
          <mxGeometry x="516.25" y="978.75" width="50" height="50" as="geometry" />
        </mxCell>
        <mxCell id="-c6-doeArxdfNpNEhUAH-107" value="B" style="ellipse;whiteSpace=wrap;html=1;aspect=fixed;fillColor=#a20025;strokeColor=#6F0000;fontColor=#ffffff;" vertex="1" parent="1">
          <mxGeometry x="696.25" y="977.5" width="50" height="50" as="geometry" />
        </mxCell>
        <mxCell id="-c6-doeArxdfNpNEhUAH-108" value="A" style="ellipse;whiteSpace=wrap;html=1;aspect=fixed;fillColor=#ffe6cc;strokeColor=#d79b00;" vertex="1" parent="1">
          <mxGeometry x="751.25" y="920" width="50" height="50" as="geometry" />
        </mxCell>
        <mxCell id="-c6-doeArxdfNpNEhUAH-109" value="" style="endArrow=classic;html=1;fillColor=#ffe6cc;strokeColor=#d79b00;" edge="1" parent="1">
          <mxGeometry width="50" height="50" relative="1" as="geometry">
            <mxPoint x="751.25" y="955" as="sourcePoint" />
            <mxPoint x="731.25" y="980" as="targetPoint" />
          </mxGeometry>
        </mxCell>
        <mxCell id="-c6-doeArxdfNpNEhUAH-110" value="" style="endArrow=classic;html=1;exitX=1;exitY=1;exitDx=0;exitDy=0;fillColor=#ffe6cc;strokeColor=#d79b00;" edge="1" source="-c6-doeArxdfNpNEhUAH-108" parent="1">
          <mxGeometry width="50" height="50" relative="1" as="geometry">
            <mxPoint x="831.25" y="960" as="sourcePoint" />
            <mxPoint x="811.25" y="985" as="targetPoint" />
          </mxGeometry>
        </mxCell>
        <mxCell id="-c6-doeArxdfNpNEhUAH-111" value="" style="strokeWidth=2;html=1;shape=mxgraph.flowchart.extract_or_measurement;whiteSpace=wrap;rotation=90;fillColor=#fff2cc;strokeColor=#d6b656;" vertex="1" parent="1">
          <mxGeometry x="776.25" y="992.5" width="30" height="20" as="geometry" />
        </mxCell>
        <mxCell id="-c6-doeArxdfNpNEhUAH-112" value="C" style="ellipse;whiteSpace=wrap;html=1;aspect=fixed;" vertex="1" parent="1">
          <mxGeometry x="806.25" y="977.5" width="50" height="50" as="geometry" />
        </mxCell>
        <mxCell id="-c6-doeArxdfNpNEhUAH-113" value="A" style="ellipse;whiteSpace=wrap;html=1;aspect=fixed;fillColor=#ffe6cc;strokeColor=#d79b00;" vertex="1" parent="1">
          <mxGeometry x="206.25" y="1110" width="50" height="50" as="geometry" />
        </mxCell>
        <mxCell id="-c6-doeArxdfNpNEhUAH-114" value="" style="endArrow=classic;html=1;fillColor=#ffe6cc;strokeColor=#d79b00;" edge="1" parent="1">
          <mxGeometry width="50" height="50" relative="1" as="geometry">
            <mxPoint x="206.25" y="1145" as="sourcePoint" />
            <mxPoint x="186.25" y="1170" as="targetPoint" />
          </mxGeometry>
        </mxCell>
        <mxCell id="-c6-doeArxdfNpNEhUAH-115" value="" style="endArrow=classic;html=1;exitX=1;exitY=1;exitDx=0;exitDy=0;fillColor=#ffe6cc;strokeColor=#d79b00;" edge="1" source="-c6-doeArxdfNpNEhUAH-113" parent="1">
          <mxGeometry width="50" height="50" relative="1" as="geometry">
            <mxPoint x="286.25" y="1150" as="sourcePoint" />
            <mxPoint x="266.25" y="1175" as="targetPoint" />
          </mxGeometry>
        </mxCell>
        <mxCell id="-c6-doeArxdfNpNEhUAH-116" value="" style="strokeWidth=2;html=1;shape=mxgraph.flowchart.extract_or_measurement;whiteSpace=wrap;rotation=90;fillColor=#fff2cc;strokeColor=#d6b656;" vertex="1" parent="1">
          <mxGeometry x="171.25" y="1265" width="30" height="20" as="geometry" />
        </mxCell>
        <mxCell id="-c6-doeArxdfNpNEhUAH-117" value="C" style="ellipse;whiteSpace=wrap;html=1;aspect=fixed;fillColor=#ffe6cc;strokeColor=#d79b00;" vertex="1" parent="1">
          <mxGeometry x="261.25" y="1167.5" width="50" height="50" as="geometry" />
        </mxCell>
        <mxCell id="-c6-doeArxdfNpNEhUAH-118" value="" style="endArrow=classic;html=1;fillColor=#ffe6cc;strokeColor=#d79b00;" edge="1" parent="1">
          <mxGeometry width="50" height="50" relative="1" as="geometry">
            <mxPoint x="271.25" y="1210" as="sourcePoint" />
            <mxPoint x="236.25" y="1250" as="targetPoint" />
          </mxGeometry>
        </mxCell>
        <mxCell id="-c6-doeArxdfNpNEhUAH-119" value="" style="endArrow=classic;html=1;fillColor=#ffe6cc;strokeColor=#d79b00;" edge="1" parent="1">
          <mxGeometry width="50" height="50" relative="1" as="geometry">
            <mxPoint x="306.25" y="1210" as="sourcePoint" />
            <mxPoint x="346.25" y="1250" as="targetPoint" />
          </mxGeometry>
        </mxCell>
        <mxCell id="-c6-doeArxdfNpNEhUAH-120" value="D" style="ellipse;whiteSpace=wrap;html=1;aspect=fixed;" vertex="1" parent="1">
          <mxGeometry x="201.25" y="1250" width="50" height="50" as="geometry" />
        </mxCell>
        <mxCell id="-c6-doeArxdfNpNEhUAH-121" value="E" style="ellipse;whiteSpace=wrap;html=1;aspect=fixed;" vertex="1" parent="1">
          <mxGeometry x="326.25" y="1250" width="50" height="50" as="geometry" />
        </mxCell>
        <mxCell id="-c6-doeArxdfNpNEhUAH-122" value="B" style="ellipse;whiteSpace=wrap;html=1;aspect=fixed;fillColor=#a20025;strokeColor=#6F0000;fontColor=#ffffff;" vertex="1" parent="1">
          <mxGeometry x="456.25" y="1167.5" width="50" height="50" as="geometry" />
        </mxCell>
        <mxCell id="-c6-doeArxdfNpNEhUAH-123" value="A" style="ellipse;whiteSpace=wrap;html=1;aspect=fixed;fillColor=#ffe6cc;strokeColor=#d79b00;" vertex="1" parent="1">
          <mxGeometry x="511.25" y="1110" width="50" height="50" as="geometry" />
        </mxCell>
        <mxCell id="-c6-doeArxdfNpNEhUAH-124" value="" style="endArrow=classic;html=1;fillColor=#ffe6cc;strokeColor=#d79b00;" edge="1" parent="1">
          <mxGeometry width="50" height="50" relative="1" as="geometry">
            <mxPoint x="511.25" y="1145" as="sourcePoint" />
            <mxPoint x="491.25" y="1170" as="targetPoint" />
          </mxGeometry>
        </mxCell>
        <mxCell id="-c6-doeArxdfNpNEhUAH-125" value="" style="endArrow=classic;html=1;exitX=1;exitY=1;exitDx=0;exitDy=0;fillColor=#ffe6cc;strokeColor=#d79b00;" edge="1" source="-c6-doeArxdfNpNEhUAH-123" parent="1">
          <mxGeometry width="50" height="50" relative="1" as="geometry">
            <mxPoint x="591.25" y="1150" as="sourcePoint" />
            <mxPoint x="571.25" y="1175" as="targetPoint" />
          </mxGeometry>
        </mxCell>
        <mxCell id="-c6-doeArxdfNpNEhUAH-126" value="" style="strokeWidth=2;html=1;shape=mxgraph.flowchart.extract_or_measurement;whiteSpace=wrap;rotation=90;fillColor=#fff2cc;strokeColor=#d6b656;" vertex="1" parent="1">
          <mxGeometry x="406.25" y="1335" width="30" height="20" as="geometry" />
        </mxCell>
        <mxCell id="-c6-doeArxdfNpNEhUAH-127" value="C" style="ellipse;whiteSpace=wrap;html=1;aspect=fixed;fillColor=#ffe6cc;strokeColor=#d79b00;" vertex="1" parent="1">
          <mxGeometry x="566.25" y="1167.5" width="50" height="50" as="geometry" />
        </mxCell>
        <mxCell id="-c6-doeArxdfNpNEhUAH-128" value="" style="endArrow=classic;html=1;fillColor=#ffe6cc;strokeColor=#d79b00;" edge="1" parent="1">
          <mxGeometry width="50" height="50" relative="1" as="geometry">
            <mxPoint x="576.25" y="1210" as="sourcePoint" />
            <mxPoint x="541.25" y="1250" as="targetPoint" />
          </mxGeometry>
        </mxCell>
        <mxCell id="-c6-doeArxdfNpNEhUAH-129" value="" style="endArrow=classic;html=1;fillColor=#ffe6cc;strokeColor=#d79b00;" edge="1" parent="1">
          <mxGeometry width="50" height="50" relative="1" as="geometry">
            <mxPoint x="611.25" y="1210" as="sourcePoint" />
            <mxPoint x="651.25" y="1250" as="targetPoint" />
          </mxGeometry>
        </mxCell>
        <mxCell id="-c6-doeArxdfNpNEhUAH-130" value="D" style="ellipse;whiteSpace=wrap;html=1;aspect=fixed;fillColor=#ffe6cc;strokeColor=#d79b00;" vertex="1" parent="1">
          <mxGeometry x="506.25" y="1250" width="50" height="50" as="geometry" />
        </mxCell>
        <mxCell id="-c6-doeArxdfNpNEhUAH-131" value="E" style="ellipse;whiteSpace=wrap;html=1;aspect=fixed;" vertex="1" parent="1">
          <mxGeometry x="631.25" y="1250" width="50" height="50" as="geometry" />
        </mxCell>
        <mxCell id="-c6-doeArxdfNpNEhUAH-142" value="B" style="ellipse;whiteSpace=wrap;html=1;aspect=fixed;fillColor=#a20025;strokeColor=#6F0000;fontColor=#ffffff;" vertex="1" parent="1">
          <mxGeometry x="136.25" y="1160" width="50" height="50" as="geometry" />
        </mxCell>
        <mxCell id="-c6-doeArxdfNpNEhUAH-143" value="" style="endArrow=classic;html=1;fillColor=#ffe6cc;strokeColor=#d79b00;" edge="1" parent="1">
          <mxGeometry width="50" height="50" relative="1" as="geometry">
            <mxPoint x="511.25" y="1290" as="sourcePoint" />
            <mxPoint x="476.25" y="1330" as="targetPoint" />
          </mxGeometry>
        </mxCell>
        <mxCell id="-c6-doeArxdfNpNEhUAH-144" value="" style="endArrow=classic;html=1;fillColor=#ffe6cc;strokeColor=#d79b00;" edge="1" parent="1">
          <mxGeometry width="50" height="50" relative="1" as="geometry">
            <mxPoint x="550" y="1290" as="sourcePoint" />
            <mxPoint x="580" y="1330" as="targetPoint" />
          </mxGeometry>
        </mxCell>
        <mxCell id="-c6-doeArxdfNpNEhUAH-145" value="F" style="ellipse;whiteSpace=wrap;html=1;aspect=fixed;" vertex="1" parent="1">
          <mxGeometry x="430" y="1320" width="50" height="50" as="geometry" />
        </mxCell>
        <mxCell id="-c6-doeArxdfNpNEhUAH-146" value="G" style="ellipse;whiteSpace=wrap;html=1;aspect=fixed;" vertex="1" parent="1">
          <mxGeometry x="570" y="1320" width="50" height="50" as="geometry" />
        </mxCell>
        <mxCell id="-c6-doeArxdfNpNEhUAH-147" value="B" style="ellipse;whiteSpace=wrap;html=1;aspect=fixed;fillColor=#a20025;strokeColor=#6F0000;fontColor=#ffffff;" vertex="1" parent="1">
          <mxGeometry x="757.5" y="1177.5" width="50" height="50" as="geometry" />
        </mxCell>
        <mxCell id="-c6-doeArxdfNpNEhUAH-148" value="A" style="ellipse;whiteSpace=wrap;html=1;aspect=fixed;fillColor=#ffe6cc;strokeColor=#d79b00;" vertex="1" parent="1">
          <mxGeometry x="812.5" y="1120" width="50" height="50" as="geometry" />
        </mxCell>
        <mxCell id="-c6-doeArxdfNpNEhUAH-149" value="" style="endArrow=classic;html=1;fillColor=#ffe6cc;strokeColor=#d79b00;" edge="1" parent="1">
          <mxGeometry width="50" height="50" relative="1" as="geometry">
            <mxPoint x="812.5" y="1155" as="sourcePoint" />
            <mxPoint x="792.5" y="1180" as="targetPoint" />
          </mxGeometry>
        </mxCell>
        <mxCell id="-c6-doeArxdfNpNEhUAH-150" value="" style="endArrow=classic;html=1;exitX=1;exitY=1;exitDx=0;exitDy=0;fillColor=#ffe6cc;strokeColor=#d79b00;" edge="1" source="-c6-doeArxdfNpNEhUAH-148" parent="1">
          <mxGeometry width="50" height="50" relative="1" as="geometry">
            <mxPoint x="892.5" y="1160" as="sourcePoint" />
            <mxPoint x="872.5" y="1185" as="targetPoint" />
          </mxGeometry>
        </mxCell>
        <mxCell id="-c6-doeArxdfNpNEhUAH-151" value="" style="strokeWidth=2;html=1;shape=mxgraph.flowchart.extract_or_measurement;whiteSpace=wrap;rotation=90;fillColor=#fff2cc;strokeColor=#d6b656;" vertex="1" parent="1">
          <mxGeometry x="840" y="1350" width="30" height="20" as="geometry" />
        </mxCell>
        <mxCell id="-c6-doeArxdfNpNEhUAH-152" value="C" style="ellipse;whiteSpace=wrap;html=1;aspect=fixed;fillColor=#ffe6cc;strokeColor=#d79b00;" vertex="1" parent="1">
          <mxGeometry x="867.5" y="1177.5" width="50" height="50" as="geometry" />
        </mxCell>
        <mxCell id="-c6-doeArxdfNpNEhUAH-153" value="" style="endArrow=classic;html=1;fillColor=#ffe6cc;strokeColor=#d79b00;" edge="1" parent="1">
          <mxGeometry width="50" height="50" relative="1" as="geometry">
            <mxPoint x="877.5" y="1220" as="sourcePoint" />
            <mxPoint x="842.5" y="1260" as="targetPoint" />
          </mxGeometry>
        </mxCell>
        <mxCell id="-c6-doeArxdfNpNEhUAH-154" value="" style="endArrow=classic;html=1;fillColor=#ffe6cc;strokeColor=#d79b00;" edge="1" parent="1">
          <mxGeometry width="50" height="50" relative="1" as="geometry">
            <mxPoint x="912.5" y="1220" as="sourcePoint" />
            <mxPoint x="952.5" y="1260" as="targetPoint" />
          </mxGeometry>
        </mxCell>
        <mxCell id="-c6-doeArxdfNpNEhUAH-155" value="D" style="ellipse;whiteSpace=wrap;html=1;aspect=fixed;fillColor=#ffe6cc;strokeColor=#d79b00;" vertex="1" parent="1">
          <mxGeometry x="807.5" y="1260" width="50" height="50" as="geometry" />
        </mxCell>
        <mxCell id="-c6-doeArxdfNpNEhUAH-156" value="E" style="ellipse;whiteSpace=wrap;html=1;aspect=fixed;" vertex="1" parent="1">
          <mxGeometry x="932.5" y="1260" width="50" height="50" as="geometry" />
        </mxCell>
        <mxCell id="-c6-doeArxdfNpNEhUAH-157" value="" style="endArrow=classic;html=1;fillColor=#ffe6cc;strokeColor=#d79b00;" edge="1" parent="1">
          <mxGeometry width="50" height="50" relative="1" as="geometry">
            <mxPoint x="812.5" y="1300" as="sourcePoint" />
            <mxPoint x="777.5" y="1340" as="targetPoint" />
          </mxGeometry>
        </mxCell>
        <mxCell id="-c6-doeArxdfNpNEhUAH-158" value="" style="endArrow=classic;html=1;fillColor=#ffe6cc;strokeColor=#d79b00;" edge="1" parent="1">
          <mxGeometry width="50" height="50" relative="1" as="geometry">
            <mxPoint x="851.25" y="1300" as="sourcePoint" />
            <mxPoint x="881.25" y="1340" as="targetPoint" />
          </mxGeometry>
        </mxCell>
        <mxCell id="-c6-doeArxdfNpNEhUAH-159" value="F" style="ellipse;whiteSpace=wrap;html=1;aspect=fixed;fillColor=#a20025;strokeColor=#6F0000;fontColor=#ffffff;" vertex="1" parent="1">
          <mxGeometry x="731.25" y="1330" width="50" height="50" as="geometry" />
        </mxCell>
        <mxCell id="-c6-doeArxdfNpNEhUAH-160" value="G" style="ellipse;whiteSpace=wrap;html=1;aspect=fixed;" vertex="1" parent="1">
          <mxGeometry x="871.25" y="1330" width="50" height="50" as="geometry" />
        </mxCell>
        <mxCell id="-c6-doeArxdfNpNEhUAH-176" value="B" style="ellipse;whiteSpace=wrap;html=1;aspect=fixed;fillColor=#a20025;strokeColor=#6F0000;fontColor=#ffffff;" vertex="1" parent="1">
          <mxGeometry x="162.5" y="1447.5" width="50" height="50" as="geometry" />
        </mxCell>
        <mxCell id="-c6-doeArxdfNpNEhUAH-177" value="A" style="ellipse;whiteSpace=wrap;html=1;aspect=fixed;fillColor=#ffe6cc;strokeColor=#d79b00;" vertex="1" parent="1">
          <mxGeometry x="217.5" y="1390" width="50" height="50" as="geometry" />
        </mxCell>
        <mxCell id="-c6-doeArxdfNpNEhUAH-178" value="" style="endArrow=classic;html=1;fillColor=#ffe6cc;strokeColor=#d79b00;" edge="1" parent="1">
          <mxGeometry width="50" height="50" relative="1" as="geometry">
            <mxPoint x="217.5" y="1425" as="sourcePoint" />
            <mxPoint x="197.5" y="1450" as="targetPoint" />
          </mxGeometry>
        </mxCell>
        <mxCell id="-c6-doeArxdfNpNEhUAH-179" value="" style="endArrow=classic;html=1;exitX=1;exitY=1;exitDx=0;exitDy=0;fillColor=#ffe6cc;strokeColor=#d79b00;" edge="1" source="-c6-doeArxdfNpNEhUAH-177" parent="1">
          <mxGeometry width="50" height="50" relative="1" as="geometry">
            <mxPoint x="297.5" y="1430" as="sourcePoint" />
            <mxPoint x="277.5" y="1455" as="targetPoint" />
          </mxGeometry>
        </mxCell>
        <mxCell id="-c6-doeArxdfNpNEhUAH-180" value="" style="strokeWidth=2;html=1;shape=mxgraph.flowchart.extract_or_measurement;whiteSpace=wrap;rotation=90;fillColor=#fff2cc;strokeColor=#d6b656;" vertex="1" parent="1">
          <mxGeometry x="245" y="1620" width="30" height="20" as="geometry" />
        </mxCell>
        <mxCell id="-c6-doeArxdfNpNEhUAH-181" value="C" style="ellipse;whiteSpace=wrap;html=1;aspect=fixed;fillColor=#ffe6cc;strokeColor=#d79b00;" vertex="1" parent="1">
          <mxGeometry x="272.5" y="1447.5" width="50" height="50" as="geometry" />
        </mxCell>
        <mxCell id="-c6-doeArxdfNpNEhUAH-182" value="" style="endArrow=classic;html=1;fillColor=#ffe6cc;strokeColor=#d79b00;" edge="1" parent="1">
          <mxGeometry width="50" height="50" relative="1" as="geometry">
            <mxPoint x="282.5" y="1490" as="sourcePoint" />
            <mxPoint x="247.5" y="1530" as="targetPoint" />
          </mxGeometry>
        </mxCell>
        <mxCell id="-c6-doeArxdfNpNEhUAH-183" value="" style="endArrow=classic;html=1;fillColor=#ffe6cc;strokeColor=#d79b00;" edge="1" parent="1">
          <mxGeometry width="50" height="50" relative="1" as="geometry">
            <mxPoint x="317.5" y="1490" as="sourcePoint" />
            <mxPoint x="357.5" y="1530" as="targetPoint" />
          </mxGeometry>
        </mxCell>
        <mxCell id="-c6-doeArxdfNpNEhUAH-184" value="D" style="ellipse;whiteSpace=wrap;html=1;aspect=fixed;fillColor=#ffe6cc;strokeColor=#d79b00;" vertex="1" parent="1">
          <mxGeometry x="212.5" y="1530" width="50" height="50" as="geometry" />
        </mxCell>
        <mxCell id="-c6-doeArxdfNpNEhUAH-185" value="E" style="ellipse;whiteSpace=wrap;html=1;aspect=fixed;" vertex="1" parent="1">
          <mxGeometry x="337.5" y="1530" width="50" height="50" as="geometry" />
        </mxCell>
        <mxCell id="-c6-doeArxdfNpNEhUAH-186" value="" style="endArrow=classic;html=1;fillColor=#ffe6cc;strokeColor=#d79b00;" edge="1" parent="1">
          <mxGeometry width="50" height="50" relative="1" as="geometry">
            <mxPoint x="217.5" y="1570" as="sourcePoint" />
            <mxPoint x="182.5" y="1610" as="targetPoint" />
          </mxGeometry>
        </mxCell>
        <mxCell id="-c6-doeArxdfNpNEhUAH-187" value="" style="endArrow=classic;html=1;fillColor=#ffe6cc;strokeColor=#d79b00;" edge="1" parent="1">
          <mxGeometry width="50" height="50" relative="1" as="geometry">
            <mxPoint x="256.25" y="1570" as="sourcePoint" />
            <mxPoint x="286.25" y="1610" as="targetPoint" />
          </mxGeometry>
        </mxCell>
        <mxCell id="-c6-doeArxdfNpNEhUAH-188" value="F" style="ellipse;whiteSpace=wrap;html=1;aspect=fixed;fillColor=#a20025;strokeColor=#6F0000;fontColor=#ffffff;" vertex="1" parent="1">
          <mxGeometry x="136.25" y="1600" width="50" height="50" as="geometry" />
        </mxCell>
        <mxCell id="-c6-doeArxdfNpNEhUAH-189" value="G" style="ellipse;whiteSpace=wrap;html=1;aspect=fixed;" vertex="1" parent="1">
          <mxGeometry x="276.25" y="1600" width="50" height="50" as="geometry" />
        </mxCell>
        <mxCell id="-c6-doeArxdfNpNEhUAH-190" value="B" style="ellipse;whiteSpace=wrap;html=1;aspect=fixed;fillColor=#a20025;strokeColor=#6F0000;fontColor=#ffffff;" vertex="1" parent="1">
          <mxGeometry x="495.63" y="1457.5" width="50" height="50" as="geometry" />
        </mxCell>
        <mxCell id="-c6-doeArxdfNpNEhUAH-191" value="A" style="ellipse;whiteSpace=wrap;html=1;aspect=fixed;fillColor=#ffe6cc;strokeColor=#d79b00;" vertex="1" parent="1">
          <mxGeometry x="550.63" y="1400" width="50" height="50" as="geometry" />
        </mxCell>
        <mxCell id="-c6-doeArxdfNpNEhUAH-192" value="" style="endArrow=classic;html=1;fillColor=#ffe6cc;strokeColor=#d79b00;" edge="1" parent="1">
          <mxGeometry width="50" height="50" relative="1" as="geometry">
            <mxPoint x="550.63" y="1435" as="sourcePoint" />
            <mxPoint x="530.63" y="1460" as="targetPoint" />
          </mxGeometry>
        </mxCell>
        <mxCell id="-c6-doeArxdfNpNEhUAH-193" value="" style="endArrow=classic;html=1;exitX=1;exitY=1;exitDx=0;exitDy=0;fillColor=#ffe6cc;strokeColor=#d79b00;" edge="1" source="-c6-doeArxdfNpNEhUAH-191" parent="1">
          <mxGeometry width="50" height="50" relative="1" as="geometry">
            <mxPoint x="630.63" y="1440" as="sourcePoint" />
            <mxPoint x="610.63" y="1465" as="targetPoint" />
          </mxGeometry>
        </mxCell>
        <mxCell id="-c6-doeArxdfNpNEhUAH-194" value="" style="strokeWidth=2;html=1;shape=mxgraph.flowchart.extract_or_measurement;whiteSpace=wrap;rotation=90;fillColor=#fff2cc;strokeColor=#d6b656;" vertex="1" parent="1">
          <mxGeometry x="645" y="1555" width="30" height="20" as="geometry" />
        </mxCell>
        <mxCell id="-c6-doeArxdfNpNEhUAH-195" value="C" style="ellipse;whiteSpace=wrap;html=1;aspect=fixed;fillColor=#ffe6cc;strokeColor=#d79b00;" vertex="1" parent="1">
          <mxGeometry x="605.63" y="1457.5" width="50" height="50" as="geometry" />
        </mxCell>
        <mxCell id="-c6-doeArxdfNpNEhUAH-196" value="" style="endArrow=classic;html=1;fillColor=#ffe6cc;strokeColor=#d79b00;" edge="1" parent="1">
          <mxGeometry width="50" height="50" relative="1" as="geometry">
            <mxPoint x="615.63" y="1500" as="sourcePoint" />
            <mxPoint x="580.63" y="1540" as="targetPoint" />
          </mxGeometry>
        </mxCell>
        <mxCell id="-c6-doeArxdfNpNEhUAH-197" value="" style="endArrow=classic;html=1;fillColor=#ffe6cc;strokeColor=#d79b00;" edge="1" parent="1">
          <mxGeometry width="50" height="50" relative="1" as="geometry">
            <mxPoint x="650.63" y="1500" as="sourcePoint" />
            <mxPoint x="690.63" y="1540" as="targetPoint" />
          </mxGeometry>
        </mxCell>
        <mxCell id="-c6-doeArxdfNpNEhUAH-198" value="D" style="ellipse;whiteSpace=wrap;html=1;aspect=fixed;fillColor=#ffe6cc;strokeColor=#d79b00;" vertex="1" parent="1">
          <mxGeometry x="545.63" y="1540" width="50" height="50" as="geometry" />
        </mxCell>
        <mxCell id="-c6-doeArxdfNpNEhUAH-199" value="E" style="ellipse;whiteSpace=wrap;html=1;aspect=fixed;" vertex="1" parent="1">
          <mxGeometry x="670.63" y="1540" width="50" height="50" as="geometry" />
        </mxCell>
        <mxCell id="-c6-doeArxdfNpNEhUAH-200" value="" style="endArrow=classic;html=1;fillColor=#ffe6cc;strokeColor=#d79b00;" edge="1" parent="1">
          <mxGeometry width="50" height="50" relative="1" as="geometry">
            <mxPoint x="550.63" y="1580" as="sourcePoint" />
            <mxPoint x="515.63" y="1620" as="targetPoint" />
          </mxGeometry>
        </mxCell>
        <mxCell id="-c6-doeArxdfNpNEhUAH-201" value="" style="endArrow=classic;html=1;fillColor=#ffe6cc;strokeColor=#d79b00;" edge="1" parent="1">
          <mxGeometry width="50" height="50" relative="1" as="geometry">
            <mxPoint x="589.38" y="1580" as="sourcePoint" />
            <mxPoint x="619.38" y="1620" as="targetPoint" />
          </mxGeometry>
        </mxCell>
        <mxCell id="-c6-doeArxdfNpNEhUAH-202" value="F" style="ellipse;whiteSpace=wrap;html=1;aspect=fixed;fillColor=#a20025;strokeColor=#6F0000;fontColor=#ffffff;" vertex="1" parent="1">
          <mxGeometry x="469.38" y="1610" width="50" height="50" as="geometry" />
        </mxCell>
        <mxCell id="-c6-doeArxdfNpNEhUAH-203" value="G" style="ellipse;whiteSpace=wrap;html=1;aspect=fixed;fillColor=#a20025;strokeColor=#6F0000;fontColor=#ffffff;" vertex="1" parent="1">
          <mxGeometry x="609.38" y="1610" width="50" height="50" as="geometry" />
        </mxCell>
        <mxCell id="-c6-doeArxdfNpNEhUAH-205" value="B" style="ellipse;whiteSpace=wrap;html=1;aspect=fixed;fillColor=#a20025;strokeColor=#6F0000;fontColor=#ffffff;" vertex="1" parent="1">
          <mxGeometry x="795" y="1467.5" width="50" height="50" as="geometry" />
        </mxCell>
        <mxCell id="-c6-doeArxdfNpNEhUAH-206" value="A" style="ellipse;whiteSpace=wrap;html=1;aspect=fixed;fillColor=#ffe6cc;strokeColor=#d79b00;" vertex="1" parent="1">
          <mxGeometry x="850" y="1410" width="50" height="50" as="geometry" />
        </mxCell>
        <mxCell id="-c6-doeArxdfNpNEhUAH-207" value="" style="endArrow=classic;html=1;fillColor=#ffe6cc;strokeColor=#d79b00;" edge="1" parent="1">
          <mxGeometry width="50" height="50" relative="1" as="geometry">
            <mxPoint x="850.0000000000001" y="1445" as="sourcePoint" />
            <mxPoint x="830.0000000000001" y="1470" as="targetPoint" />
          </mxGeometry>
        </mxCell>
        <mxCell id="-c6-doeArxdfNpNEhUAH-208" value="" style="endArrow=classic;html=1;exitX=1;exitY=1;exitDx=0;exitDy=0;fillColor=#ffe6cc;strokeColor=#d79b00;" edge="1" source="-c6-doeArxdfNpNEhUAH-206" parent="1">
          <mxGeometry width="50" height="50" relative="1" as="geometry">
            <mxPoint x="930" y="1450" as="sourcePoint" />
            <mxPoint x="910.0000000000001" y="1475" as="targetPoint" />
          </mxGeometry>
        </mxCell>
        <mxCell id="-c6-doeArxdfNpNEhUAH-209" value="" style="strokeWidth=2;html=1;shape=mxgraph.flowchart.extract_or_measurement;whiteSpace=wrap;rotation=90;fillColor=#fff2cc;strokeColor=#d6b656;" vertex="1" parent="1">
          <mxGeometry x="944.37" y="1565" width="30" height="20" as="geometry" />
        </mxCell>
        <mxCell id="-c6-doeArxdfNpNEhUAH-210" value="C" style="ellipse;whiteSpace=wrap;html=1;aspect=fixed;fillColor=#ffe6cc;strokeColor=#d79b00;" vertex="1" parent="1">
          <mxGeometry x="905" y="1467.5" width="50" height="50" as="geometry" />
        </mxCell>
        <mxCell id="-c6-doeArxdfNpNEhUAH-211" value="" style="endArrow=classic;html=1;fillColor=#ffe6cc;strokeColor=#d79b00;" edge="1" parent="1">
          <mxGeometry width="50" height="50" relative="1" as="geometry">
            <mxPoint x="915.0000000000001" y="1510" as="sourcePoint" />
            <mxPoint x="880.0000000000001" y="1550" as="targetPoint" />
          </mxGeometry>
        </mxCell>
        <mxCell id="-c6-doeArxdfNpNEhUAH-212" value="" style="endArrow=classic;html=1;fillColor=#ffe6cc;strokeColor=#d79b00;" edge="1" parent="1">
          <mxGeometry width="50" height="50" relative="1" as="geometry">
            <mxPoint x="950.0000000000001" y="1510" as="sourcePoint" />
            <mxPoint x="990.0000000000001" y="1550" as="targetPoint" />
          </mxGeometry>
        </mxCell>
        <mxCell id="-c6-doeArxdfNpNEhUAH-213" value="D" style="ellipse;whiteSpace=wrap;html=1;aspect=fixed;fillColor=#ffe6cc;strokeColor=#d79b00;" vertex="1" parent="1">
          <mxGeometry x="845" y="1550" width="50" height="50" as="geometry" />
        </mxCell>
        <mxCell id="-c6-doeArxdfNpNEhUAH-214" value="E" style="ellipse;whiteSpace=wrap;html=1;aspect=fixed;fillColor=#a20025;strokeColor=#6F0000;fontColor=#ffffff;" vertex="1" parent="1">
          <mxGeometry x="970" y="1550" width="50" height="50" as="geometry" />
        </mxCell>
        <mxCell id="-c6-doeArxdfNpNEhUAH-215" value="" style="endArrow=classic;html=1;fillColor=#ffe6cc;strokeColor=#d79b00;" edge="1" parent="1">
          <mxGeometry width="50" height="50" relative="1" as="geometry">
            <mxPoint x="850.0000000000001" y="1590" as="sourcePoint" />
            <mxPoint x="815.0000000000001" y="1630" as="targetPoint" />
          </mxGeometry>
        </mxCell>
        <mxCell id="-c6-doeArxdfNpNEhUAH-216" value="" style="endArrow=classic;html=1;fillColor=#ffe6cc;strokeColor=#d79b00;" edge="1" parent="1">
          <mxGeometry width="50" height="50" relative="1" as="geometry">
            <mxPoint x="888.7500000000001" y="1590" as="sourcePoint" />
            <mxPoint x="918.7500000000001" y="1630" as="targetPoint" />
          </mxGeometry>
        </mxCell>
        <mxCell id="-c6-doeArxdfNpNEhUAH-217" value="F" style="ellipse;whiteSpace=wrap;html=1;aspect=fixed;fillColor=#a20025;strokeColor=#6F0000;fontColor=#ffffff;" vertex="1" parent="1">
          <mxGeometry x="768.75" y="1620" width="50" height="50" as="geometry" />
        </mxCell>
        <mxCell id="-c6-doeArxdfNpNEhUAH-218" value="G" style="ellipse;whiteSpace=wrap;html=1;aspect=fixed;fillColor=#a20025;strokeColor=#6F0000;fontColor=#ffffff;" vertex="1" parent="1">
          <mxGeometry x="908.75" y="1620" width="50" height="50" as="geometry" />
        </mxCell>
        <mxCell id="-c6-doeArxdfNpNEhUAH-219" value="A" style="ellipse;whiteSpace=wrap;html=1;aspect=fixed;" vertex="1" parent="1">
          <mxGeometry x="195" y="1787.5" width="50" height="50" as="geometry" />
        </mxCell>
        <mxCell id="-c6-doeArxdfNpNEhUAH-220" value="" style="endArrow=classic;html=1;" edge="1" parent="1">
          <mxGeometry width="50" height="50" relative="1" as="geometry">
            <mxPoint x="195" y="1822.5" as="sourcePoint" />
            <mxPoint x="175" y="1847.5" as="targetPoint" />
          </mxGeometry>
        </mxCell>
        <mxCell id="-c6-doeArxdfNpNEhUAH-221" value="" style="endArrow=classic;html=1;exitX=1;exitY=1;exitDx=0;exitDy=0;" edge="1" source="-c6-doeArxdfNpNEhUAH-219" parent="1">
          <mxGeometry width="50" height="50" relative="1" as="geometry">
            <mxPoint x="275" y="1827.5" as="sourcePoint" />
            <mxPoint x="255" y="1852.5" as="targetPoint" />
          </mxGeometry>
        </mxCell>
        <mxCell id="-c6-doeArxdfNpNEhUAH-222" value="" style="strokeWidth=2;html=1;shape=mxgraph.flowchart.extract_or_measurement;whiteSpace=wrap;rotation=90;fillColor=#fff2cc;strokeColor=#d6b656;" vertex="1" parent="1">
          <mxGeometry x="150" y="1795" width="30" height="20" as="geometry" />
        </mxCell>
        <mxCell id="-c6-doeArxdfNpNEhUAH-223" value="B" style="ellipse;whiteSpace=wrap;html=1;aspect=fixed;" vertex="1" parent="1">
          <mxGeometry x="400" y="1808.75" width="50" height="50" as="geometry" />
        </mxCell>
        <mxCell id="-c6-doeArxdfNpNEhUAH-224" value="A" style="ellipse;whiteSpace=wrap;html=1;aspect=fixed;fillColor=#ffe6cc;strokeColor=#d79b00;" vertex="1" parent="1">
          <mxGeometry x="455" y="1751.25" width="50" height="50" as="geometry" />
        </mxCell>
        <mxCell id="-c6-doeArxdfNpNEhUAH-225" value="" style="endArrow=classic;html=1;fillColor=#ffe6cc;strokeColor=#d79b00;" edge="1" parent="1">
          <mxGeometry width="50" height="50" relative="1" as="geometry">
            <mxPoint x="455" y="1786.25" as="sourcePoint" />
            <mxPoint x="435" y="1811.25" as="targetPoint" />
          </mxGeometry>
        </mxCell>
        <mxCell id="-c6-doeArxdfNpNEhUAH-226" value="" style="endArrow=classic;html=1;exitX=1;exitY=1;exitDx=0;exitDy=0;fillColor=#ffe6cc;strokeColor=#d79b00;" edge="1" source="-c6-doeArxdfNpNEhUAH-224" parent="1">
          <mxGeometry width="50" height="50" relative="1" as="geometry">
            <mxPoint x="535" y="1791.25" as="sourcePoint" />
            <mxPoint x="515" y="1816.25" as="targetPoint" />
          </mxGeometry>
        </mxCell>
        <mxCell id="-c6-doeArxdfNpNEhUAH-227" value="" style="strokeWidth=2;html=1;shape=mxgraph.flowchart.extract_or_measurement;whiteSpace=wrap;rotation=90;fillColor=#fff2cc;strokeColor=#d6b656;" vertex="1" parent="1">
          <mxGeometry x="370" y="1823.75" width="30" height="20" as="geometry" />
        </mxCell>
        <mxCell id="-c6-doeArxdfNpNEhUAH-228" value="C" style="ellipse;whiteSpace=wrap;html=1;aspect=fixed;" vertex="1" parent="1">
          <mxGeometry x="510" y="1808.75" width="50" height="50" as="geometry" />
        </mxCell>
        <mxCell id="-c6-doeArxdfNpNEhUAH-229" value="B" style="ellipse;whiteSpace=wrap;html=1;aspect=fixed;fillColor=#a20025;strokeColor=#6F0000;fontColor=#ffffff;" vertex="1" parent="1">
          <mxGeometry x="690" y="1807.5" width="50" height="50" as="geometry" />
        </mxCell>
        <mxCell id="-c6-doeArxdfNpNEhUAH-230" value="A" style="ellipse;whiteSpace=wrap;html=1;aspect=fixed;fillColor=#ffe6cc;strokeColor=#d79b00;" vertex="1" parent="1">
          <mxGeometry x="745" y="1750" width="50" height="50" as="geometry" />
        </mxCell>
        <mxCell id="-c6-doeArxdfNpNEhUAH-231" value="" style="endArrow=classic;html=1;fillColor=#ffe6cc;strokeColor=#d79b00;" edge="1" parent="1">
          <mxGeometry width="50" height="50" relative="1" as="geometry">
            <mxPoint x="745" y="1785" as="sourcePoint" />
            <mxPoint x="725" y="1810" as="targetPoint" />
          </mxGeometry>
        </mxCell>
        <mxCell id="-c6-doeArxdfNpNEhUAH-232" value="" style="endArrow=classic;html=1;exitX=1;exitY=1;exitDx=0;exitDy=0;fillColor=#ffe6cc;strokeColor=#d79b00;" edge="1" source="-c6-doeArxdfNpNEhUAH-230" parent="1">
          <mxGeometry width="50" height="50" relative="1" as="geometry">
            <mxPoint x="825" y="1790" as="sourcePoint" />
            <mxPoint x="805" y="1815" as="targetPoint" />
          </mxGeometry>
        </mxCell>
        <mxCell id="-c6-doeArxdfNpNEhUAH-233" value="" style="strokeWidth=2;html=1;shape=mxgraph.flowchart.extract_or_measurement;whiteSpace=wrap;rotation=90;fillColor=#fff2cc;strokeColor=#d6b656;" vertex="1" parent="1">
          <mxGeometry x="770" y="1822.5" width="30" height="20" as="geometry" />
        </mxCell>
        <mxCell id="-c6-doeArxdfNpNEhUAH-234" value="C" style="ellipse;whiteSpace=wrap;html=1;aspect=fixed;" vertex="1" parent="1">
          <mxGeometry x="800" y="1807.5" width="50" height="50" as="geometry" />
        </mxCell>
        <mxCell id="-c6-doeArxdfNpNEhUAH-235" value="A" style="ellipse;whiteSpace=wrap;html=1;aspect=fixed;fillColor=#ffe6cc;strokeColor=#d79b00;" vertex="1" parent="1">
          <mxGeometry x="200" y="1940" width="50" height="50" as="geometry" />
        </mxCell>
        <mxCell id="-c6-doeArxdfNpNEhUAH-236" value="" style="endArrow=classic;html=1;fillColor=#ffe6cc;strokeColor=#d79b00;" edge="1" parent="1">
          <mxGeometry width="50" height="50" relative="1" as="geometry">
            <mxPoint x="200" y="1975" as="sourcePoint" />
            <mxPoint x="180" y="2000" as="targetPoint" />
          </mxGeometry>
        </mxCell>
        <mxCell id="-c6-doeArxdfNpNEhUAH-237" value="" style="endArrow=classic;html=1;exitX=1;exitY=1;exitDx=0;exitDy=0;fillColor=#ffe6cc;strokeColor=#d79b00;" edge="1" source="-c6-doeArxdfNpNEhUAH-235" parent="1">
          <mxGeometry width="50" height="50" relative="1" as="geometry">
            <mxPoint x="280" y="1980" as="sourcePoint" />
            <mxPoint x="260" y="2005" as="targetPoint" />
          </mxGeometry>
        </mxCell>
        <mxCell id="-c6-doeArxdfNpNEhUAH-238" value="" style="strokeWidth=2;html=1;shape=mxgraph.flowchart.extract_or_measurement;whiteSpace=wrap;rotation=90;fillColor=#fff2cc;strokeColor=#d6b656;" vertex="1" parent="1">
          <mxGeometry x="165" y="2095" width="30" height="20" as="geometry" />
        </mxCell>
        <mxCell id="-c6-doeArxdfNpNEhUAH-239" value="C" style="ellipse;whiteSpace=wrap;html=1;aspect=fixed;fillColor=#ffe6cc;strokeColor=#d79b00;" vertex="1" parent="1">
          <mxGeometry x="255" y="1997.5" width="50" height="50" as="geometry" />
        </mxCell>
        <mxCell id="-c6-doeArxdfNpNEhUAH-240" value="" style="endArrow=classic;html=1;fillColor=#ffe6cc;strokeColor=#d79b00;" edge="1" parent="1">
          <mxGeometry width="50" height="50" relative="1" as="geometry">
            <mxPoint x="265" y="2040" as="sourcePoint" />
            <mxPoint x="230" y="2080" as="targetPoint" />
          </mxGeometry>
        </mxCell>
        <mxCell id="-c6-doeArxdfNpNEhUAH-241" value="" style="endArrow=classic;html=1;fillColor=#ffe6cc;strokeColor=#d79b00;" edge="1" parent="1">
          <mxGeometry width="50" height="50" relative="1" as="geometry">
            <mxPoint x="300" y="2040" as="sourcePoint" />
            <mxPoint x="340" y="2080" as="targetPoint" />
          </mxGeometry>
        </mxCell>
        <mxCell id="-c6-doeArxdfNpNEhUAH-242" value="D" style="ellipse;whiteSpace=wrap;html=1;aspect=fixed;" vertex="1" parent="1">
          <mxGeometry x="195" y="2080" width="50" height="50" as="geometry" />
        </mxCell>
        <mxCell id="-c6-doeArxdfNpNEhUAH-243" value="E" style="ellipse;whiteSpace=wrap;html=1;aspect=fixed;" vertex="1" parent="1">
          <mxGeometry x="320" y="2080" width="50" height="50" as="geometry" />
        </mxCell>
        <mxCell id="-c6-doeArxdfNpNEhUAH-244" value="B" style="ellipse;whiteSpace=wrap;html=1;aspect=fixed;fillColor=#a20025;strokeColor=#6F0000;fontColor=#ffffff;" vertex="1" parent="1">
          <mxGeometry x="450" y="1997.5" width="50" height="50" as="geometry" />
        </mxCell>
        <mxCell id="-c6-doeArxdfNpNEhUAH-245" value="A" style="ellipse;whiteSpace=wrap;html=1;aspect=fixed;fillColor=#ffe6cc;strokeColor=#d79b00;" vertex="1" parent="1">
          <mxGeometry x="505" y="1940" width="50" height="50" as="geometry" />
        </mxCell>
        <mxCell id="-c6-doeArxdfNpNEhUAH-246" value="" style="endArrow=classic;html=1;fillColor=#ffe6cc;strokeColor=#d79b00;" edge="1" parent="1">
          <mxGeometry width="50" height="50" relative="1" as="geometry">
            <mxPoint x="505" y="1975" as="sourcePoint" />
            <mxPoint x="485" y="2000" as="targetPoint" />
          </mxGeometry>
        </mxCell>
        <mxCell id="-c6-doeArxdfNpNEhUAH-247" value="" style="endArrow=classic;html=1;exitX=1;exitY=1;exitDx=0;exitDy=0;fillColor=#ffe6cc;strokeColor=#d79b00;" edge="1" source="-c6-doeArxdfNpNEhUAH-245" parent="1">
          <mxGeometry width="50" height="50" relative="1" as="geometry">
            <mxPoint x="585" y="1980" as="sourcePoint" />
            <mxPoint x="565" y="2005" as="targetPoint" />
          </mxGeometry>
        </mxCell>
        <mxCell id="-c6-doeArxdfNpNEhUAH-248" value="" style="strokeWidth=2;html=1;shape=mxgraph.flowchart.extract_or_measurement;whiteSpace=wrap;rotation=90;fillColor=#fff2cc;strokeColor=#d6b656;" vertex="1" parent="1">
          <mxGeometry x="400" y="2165" width="30" height="20" as="geometry" />
        </mxCell>
        <mxCell id="-c6-doeArxdfNpNEhUAH-249" value="C" style="ellipse;whiteSpace=wrap;html=1;aspect=fixed;fillColor=#ffe6cc;strokeColor=#d79b00;" vertex="1" parent="1">
          <mxGeometry x="560" y="1997.5" width="50" height="50" as="geometry" />
        </mxCell>
        <mxCell id="-c6-doeArxdfNpNEhUAH-250" value="" style="endArrow=classic;html=1;fillColor=#ffe6cc;strokeColor=#d79b00;" edge="1" parent="1">
          <mxGeometry width="50" height="50" relative="1" as="geometry">
            <mxPoint x="570" y="2040" as="sourcePoint" />
            <mxPoint x="535" y="2080" as="targetPoint" />
          </mxGeometry>
        </mxCell>
        <mxCell id="-c6-doeArxdfNpNEhUAH-251" value="" style="endArrow=classic;html=1;fillColor=#ffe6cc;strokeColor=#d79b00;" edge="1" parent="1">
          <mxGeometry width="50" height="50" relative="1" as="geometry">
            <mxPoint x="605" y="2040" as="sourcePoint" />
            <mxPoint x="645" y="2080" as="targetPoint" />
          </mxGeometry>
        </mxCell>
        <mxCell id="-c6-doeArxdfNpNEhUAH-252" value="D" style="ellipse;whiteSpace=wrap;html=1;aspect=fixed;fillColor=#ffe6cc;strokeColor=#d79b00;" vertex="1" parent="1">
          <mxGeometry x="500" y="2080" width="50" height="50" as="geometry" />
        </mxCell>
        <mxCell id="-c6-doeArxdfNpNEhUAH-253" value="E" style="ellipse;whiteSpace=wrap;html=1;aspect=fixed;" vertex="1" parent="1">
          <mxGeometry x="625" y="2080" width="50" height="50" as="geometry" />
        </mxCell>
        <mxCell id="-c6-doeArxdfNpNEhUAH-254" value="B" style="ellipse;whiteSpace=wrap;html=1;aspect=fixed;fillColor=#a20025;strokeColor=#6F0000;fontColor=#ffffff;" vertex="1" parent="1">
          <mxGeometry x="130" y="1990" width="50" height="50" as="geometry" />
        </mxCell>
        <mxCell id="-c6-doeArxdfNpNEhUAH-255" value="" style="endArrow=classic;html=1;fillColor=#ffe6cc;strokeColor=#d79b00;" edge="1" parent="1">
          <mxGeometry width="50" height="50" relative="1" as="geometry">
            <mxPoint x="505" y="2120" as="sourcePoint" />
            <mxPoint x="470" y="2160" as="targetPoint" />
          </mxGeometry>
        </mxCell>
        <mxCell id="-c6-doeArxdfNpNEhUAH-256" value="" style="endArrow=classic;html=1;fillColor=#ffe6cc;strokeColor=#d79b00;" edge="1" parent="1">
          <mxGeometry width="50" height="50" relative="1" as="geometry">
            <mxPoint x="543.75" y="2120" as="sourcePoint" />
            <mxPoint x="573.75" y="2160" as="targetPoint" />
          </mxGeometry>
        </mxCell>
        <mxCell id="-c6-doeArxdfNpNEhUAH-257" value="F" style="ellipse;whiteSpace=wrap;html=1;aspect=fixed;" vertex="1" parent="1">
          <mxGeometry x="423.75" y="2150" width="50" height="50" as="geometry" />
        </mxCell>
        <mxCell id="-c6-doeArxdfNpNEhUAH-258" value="G" style="ellipse;whiteSpace=wrap;html=1;aspect=fixed;" vertex="1" parent="1">
          <mxGeometry x="563.75" y="2150" width="50" height="50" as="geometry" />
        </mxCell>
        <mxCell id="-c6-doeArxdfNpNEhUAH-259" value="B" style="ellipse;whiteSpace=wrap;html=1;aspect=fixed;fillColor=#a20025;strokeColor=#6F0000;fontColor=#ffffff;" vertex="1" parent="1">
          <mxGeometry x="751.25" y="2007.5" width="50" height="50" as="geometry" />
        </mxCell>
        <mxCell id="-c6-doeArxdfNpNEhUAH-260" value="A" style="ellipse;whiteSpace=wrap;html=1;aspect=fixed;fillColor=#ffe6cc;strokeColor=#d79b00;" vertex="1" parent="1">
          <mxGeometry x="806.25" y="1950" width="50" height="50" as="geometry" />
        </mxCell>
        <mxCell id="-c6-doeArxdfNpNEhUAH-261" value="" style="endArrow=classic;html=1;fillColor=#ffe6cc;strokeColor=#d79b00;" edge="1" parent="1">
          <mxGeometry width="50" height="50" relative="1" as="geometry">
            <mxPoint x="806.25" y="1985" as="sourcePoint" />
            <mxPoint x="786.25" y="2010" as="targetPoint" />
          </mxGeometry>
        </mxCell>
        <mxCell id="-c6-doeArxdfNpNEhUAH-262" value="" style="endArrow=classic;html=1;exitX=1;exitY=1;exitDx=0;exitDy=0;fillColor=#ffe6cc;strokeColor=#d79b00;" edge="1" source="-c6-doeArxdfNpNEhUAH-260" parent="1">
          <mxGeometry width="50" height="50" relative="1" as="geometry">
            <mxPoint x="886.25" y="1990" as="sourcePoint" />
            <mxPoint x="866.25" y="2015" as="targetPoint" />
          </mxGeometry>
        </mxCell>
        <mxCell id="-c6-doeArxdfNpNEhUAH-263" value="" style="strokeWidth=2;html=1;shape=mxgraph.flowchart.extract_or_measurement;whiteSpace=wrap;rotation=90;fillColor=#fff2cc;strokeColor=#d6b656;" vertex="1" parent="1">
          <mxGeometry x="833.75" y="2180" width="30" height="20" as="geometry" />
        </mxCell>
        <mxCell id="-c6-doeArxdfNpNEhUAH-264" value="C" style="ellipse;whiteSpace=wrap;html=1;aspect=fixed;fillColor=#ffe6cc;strokeColor=#d79b00;" vertex="1" parent="1">
          <mxGeometry x="861.25" y="2007.5" width="50" height="50" as="geometry" />
        </mxCell>
        <mxCell id="-c6-doeArxdfNpNEhUAH-265" value="" style="endArrow=classic;html=1;fillColor=#ffe6cc;strokeColor=#d79b00;" edge="1" parent="1">
          <mxGeometry width="50" height="50" relative="1" as="geometry">
            <mxPoint x="871.25" y="2050" as="sourcePoint" />
            <mxPoint x="836.25" y="2090" as="targetPoint" />
          </mxGeometry>
        </mxCell>
        <mxCell id="-c6-doeArxdfNpNEhUAH-266" value="" style="endArrow=classic;html=1;fillColor=#ffe6cc;strokeColor=#d79b00;" edge="1" parent="1">
          <mxGeometry width="50" height="50" relative="1" as="geometry">
            <mxPoint x="906.25" y="2050" as="sourcePoint" />
            <mxPoint x="946.25" y="2090" as="targetPoint" />
          </mxGeometry>
        </mxCell>
        <mxCell id="-c6-doeArxdfNpNEhUAH-267" value="D" style="ellipse;whiteSpace=wrap;html=1;aspect=fixed;fillColor=#ffe6cc;strokeColor=#d79b00;" vertex="1" parent="1">
          <mxGeometry x="801.25" y="2090" width="50" height="50" as="geometry" />
        </mxCell>
        <mxCell id="-c6-doeArxdfNpNEhUAH-268" value="E" style="ellipse;whiteSpace=wrap;html=1;aspect=fixed;" vertex="1" parent="1">
          <mxGeometry x="926.25" y="2090" width="50" height="50" as="geometry" />
        </mxCell>
        <mxCell id="-c6-doeArxdfNpNEhUAH-269" value="" style="endArrow=classic;html=1;fillColor=#ffe6cc;strokeColor=#d79b00;" edge="1" parent="1">
          <mxGeometry width="50" height="50" relative="1" as="geometry">
            <mxPoint x="806.25" y="2130" as="sourcePoint" />
            <mxPoint x="771.25" y="2170" as="targetPoint" />
          </mxGeometry>
        </mxCell>
        <mxCell id="-c6-doeArxdfNpNEhUAH-270" value="" style="endArrow=classic;html=1;fillColor=#ffe6cc;strokeColor=#d79b00;" edge="1" parent="1">
          <mxGeometry width="50" height="50" relative="1" as="geometry">
            <mxPoint x="845" y="2130" as="sourcePoint" />
            <mxPoint x="875" y="2170" as="targetPoint" />
          </mxGeometry>
        </mxCell>
        <mxCell id="-c6-doeArxdfNpNEhUAH-271" value="F" style="ellipse;whiteSpace=wrap;html=1;aspect=fixed;fillColor=#a20025;strokeColor=#6F0000;fontColor=#ffffff;" vertex="1" parent="1">
          <mxGeometry x="725" y="2160" width="50" height="50" as="geometry" />
        </mxCell>
        <mxCell id="-c6-doeArxdfNpNEhUAH-272" value="G" style="ellipse;whiteSpace=wrap;html=1;aspect=fixed;" vertex="1" parent="1">
          <mxGeometry x="865" y="2160" width="50" height="50" as="geometry" />
        </mxCell>
        <mxCell id="-c6-doeArxdfNpNEhUAH-273" value="B" style="ellipse;whiteSpace=wrap;html=1;aspect=fixed;fillColor=#a20025;strokeColor=#6F0000;fontColor=#ffffff;" vertex="1" parent="1">
          <mxGeometry x="156.25" y="2277.5" width="50" height="50" as="geometry" />
        </mxCell>
        <mxCell id="-c6-doeArxdfNpNEhUAH-274" value="A" style="ellipse;whiteSpace=wrap;html=1;aspect=fixed;fillColor=#ffe6cc;strokeColor=#d79b00;" vertex="1" parent="1">
          <mxGeometry x="211.25" y="2220" width="50" height="50" as="geometry" />
        </mxCell>
        <mxCell id="-c6-doeArxdfNpNEhUAH-275" value="" style="endArrow=classic;html=1;fillColor=#ffe6cc;strokeColor=#d79b00;" edge="1" parent="1">
          <mxGeometry width="50" height="50" relative="1" as="geometry">
            <mxPoint x="211.25" y="2255" as="sourcePoint" />
            <mxPoint x="191.25" y="2280" as="targetPoint" />
          </mxGeometry>
        </mxCell>
        <mxCell id="-c6-doeArxdfNpNEhUAH-276" value="" style="endArrow=classic;html=1;exitX=1;exitY=1;exitDx=0;exitDy=0;fillColor=#ffe6cc;strokeColor=#d79b00;" edge="1" source="-c6-doeArxdfNpNEhUAH-274" parent="1">
          <mxGeometry width="50" height="50" relative="1" as="geometry">
            <mxPoint x="291.25" y="2260" as="sourcePoint" />
            <mxPoint x="271.25" y="2285" as="targetPoint" />
          </mxGeometry>
        </mxCell>
        <mxCell id="-c6-doeArxdfNpNEhUAH-277" value="" style="strokeWidth=2;html=1;shape=mxgraph.flowchart.extract_or_measurement;whiteSpace=wrap;rotation=90;fillColor=#fff2cc;strokeColor=#d6b656;" vertex="1" parent="1">
          <mxGeometry x="187.5" y="2525" width="30" height="20" as="geometry" />
        </mxCell>
        <mxCell id="-c6-doeArxdfNpNEhUAH-278" value="C" style="ellipse;whiteSpace=wrap;html=1;aspect=fixed;fillColor=#ffe6cc;strokeColor=#d79b00;" vertex="1" parent="1">
          <mxGeometry x="266.25" y="2277.5" width="50" height="50" as="geometry" />
        </mxCell>
        <mxCell id="-c6-doeArxdfNpNEhUAH-279" value="" style="endArrow=classic;html=1;fillColor=#ffe6cc;strokeColor=#d79b00;" edge="1" parent="1">
          <mxGeometry width="50" height="50" relative="1" as="geometry">
            <mxPoint x="276.25" y="2320" as="sourcePoint" />
            <mxPoint x="241.25" y="2360" as="targetPoint" />
          </mxGeometry>
        </mxCell>
        <mxCell id="-c6-doeArxdfNpNEhUAH-280" value="" style="endArrow=classic;html=1;fillColor=#ffe6cc;strokeColor=#d79b00;" edge="1" parent="1">
          <mxGeometry width="50" height="50" relative="1" as="geometry">
            <mxPoint x="311.25" y="2320" as="sourcePoint" />
            <mxPoint x="351.25" y="2360" as="targetPoint" />
          </mxGeometry>
        </mxCell>
        <mxCell id="-c6-doeArxdfNpNEhUAH-281" value="D" style="ellipse;whiteSpace=wrap;html=1;aspect=fixed;fillColor=#ffe6cc;strokeColor=#d79b00;" vertex="1" parent="1">
          <mxGeometry x="206.25" y="2360" width="50" height="50" as="geometry" />
        </mxCell>
        <mxCell id="-c6-doeArxdfNpNEhUAH-282" value="E" style="ellipse;whiteSpace=wrap;html=1;aspect=fixed;" vertex="1" parent="1">
          <mxGeometry x="331.25" y="2360" width="50" height="50" as="geometry" />
        </mxCell>
        <mxCell id="-c6-doeArxdfNpNEhUAH-283" value="" style="endArrow=classic;html=1;fillColor=#ffe6cc;strokeColor=#d79b00;" edge="1" parent="1">
          <mxGeometry width="50" height="50" relative="1" as="geometry">
            <mxPoint x="211.25" y="2400" as="sourcePoint" />
            <mxPoint x="176.25" y="2440" as="targetPoint" />
          </mxGeometry>
        </mxCell>
        <mxCell id="-c6-doeArxdfNpNEhUAH-284" value="" style="endArrow=classic;html=1;fillColor=#ffe6cc;strokeColor=#d79b00;" edge="1" parent="1">
          <mxGeometry width="50" height="50" relative="1" as="geometry">
            <mxPoint x="293.75" y="2480" as="sourcePoint" />
            <mxPoint x="262.5" y="2520" as="targetPoint" />
          </mxGeometry>
        </mxCell>
        <mxCell id="-c6-doeArxdfNpNEhUAH-285" value="F" style="ellipse;whiteSpace=wrap;html=1;aspect=fixed;fillColor=#a20025;strokeColor=#6F0000;fontColor=#ffffff;" vertex="1" parent="1">
          <mxGeometry x="130" y="2430" width="50" height="50" as="geometry" />
        </mxCell>
        <mxCell id="-c6-doeArxdfNpNEhUAH-286" value="G" style="ellipse;whiteSpace=wrap;html=1;aspect=fixed;fillColor=#ffe6cc;strokeColor=#d79b00;" vertex="1" parent="1">
          <mxGeometry x="270" y="2430" width="50" height="50" as="geometry" />
        </mxCell>
        <mxCell id="-c6-doeArxdfNpNEhUAH-315" value="Limit 4" style="text;html=1;align=center;verticalAlign=middle;resizable=0;points=[];autosize=1;strokeColor=none;" vertex="1" parent="1">
          <mxGeometry x="35" y="1720" width="50" height="20" as="geometry" />
        </mxCell>
        <mxCell id="-c6-doeArxdfNpNEhUAH-330" value="H" style="ellipse;whiteSpace=wrap;html=1;aspect=fixed;fillColor=#ffe6cc;strokeColor=#d79b00;" vertex="1" parent="1">
          <mxGeometry x="216.25" y="2510" width="50" height="50" as="geometry" />
        </mxCell>
        <mxCell id="-c6-doeArxdfNpNEhUAH-331" value="" style="endArrow=classic;html=1;fillColor=#ffe6cc;strokeColor=#d79b00;" edge="1" parent="1">
          <mxGeometry width="50" height="50" relative="1" as="geometry">
            <mxPoint x="256.25" y="2400" as="sourcePoint" />
            <mxPoint x="286.25" y="2440" as="targetPoint" />
          </mxGeometry>
        </mxCell>
        <mxCell id="-c6-doeArxdfNpNEhUAH-333" value="B" style="ellipse;whiteSpace=wrap;html=1;aspect=fixed;fillColor=#a20025;strokeColor=#6F0000;fontColor=#ffffff;" vertex="1" parent="1">
          <mxGeometry x="455.63" y="2287.5" width="50" height="50" as="geometry" />
        </mxCell>
        <mxCell id="-c6-doeArxdfNpNEhUAH-334" value="A" style="ellipse;whiteSpace=wrap;html=1;aspect=fixed;fillColor=#ffe6cc;strokeColor=#d79b00;" vertex="1" parent="1">
          <mxGeometry x="510.63" y="2230" width="50" height="50" as="geometry" />
        </mxCell>
        <mxCell id="-c6-doeArxdfNpNEhUAH-335" value="" style="endArrow=classic;html=1;fillColor=#ffe6cc;strokeColor=#d79b00;" edge="1" parent="1">
          <mxGeometry width="50" height="50" relative="1" as="geometry">
            <mxPoint x="510.63" y="2265" as="sourcePoint" />
            <mxPoint x="490.63" y="2290" as="targetPoint" />
          </mxGeometry>
        </mxCell>
        <mxCell id="-c6-doeArxdfNpNEhUAH-336" value="" style="endArrow=classic;html=1;exitX=1;exitY=1;exitDx=0;exitDy=0;fillColor=#ffe6cc;strokeColor=#d79b00;" edge="1" source="-c6-doeArxdfNpNEhUAH-334" parent="1">
          <mxGeometry width="50" height="50" relative="1" as="geometry">
            <mxPoint x="590.63" y="2270" as="sourcePoint" />
            <mxPoint x="570.63" y="2295" as="targetPoint" />
          </mxGeometry>
        </mxCell>
        <mxCell id="-c6-doeArxdfNpNEhUAH-337" value="" style="strokeWidth=2;html=1;shape=mxgraph.flowchart.extract_or_measurement;whiteSpace=wrap;rotation=90;fillColor=#fff2cc;strokeColor=#d6b656;" vertex="1" parent="1">
          <mxGeometry x="605" y="2385" width="30" height="20" as="geometry" />
        </mxCell>
        <mxCell id="-c6-doeArxdfNpNEhUAH-338" value="C" style="ellipse;whiteSpace=wrap;html=1;aspect=fixed;fillColor=#ffe6cc;strokeColor=#d79b00;" vertex="1" parent="1">
          <mxGeometry x="565.63" y="2287.5" width="50" height="50" as="geometry" />
        </mxCell>
        <mxCell id="-c6-doeArxdfNpNEhUAH-339" value="" style="endArrow=classic;html=1;fillColor=#ffe6cc;strokeColor=#d79b00;" edge="1" parent="1">
          <mxGeometry width="50" height="50" relative="1" as="geometry">
            <mxPoint x="575.63" y="2330" as="sourcePoint" />
            <mxPoint x="540.63" y="2370" as="targetPoint" />
          </mxGeometry>
        </mxCell>
        <mxCell id="-c6-doeArxdfNpNEhUAH-340" value="" style="endArrow=classic;html=1;fillColor=#ffe6cc;strokeColor=#d79b00;" edge="1" parent="1">
          <mxGeometry width="50" height="50" relative="1" as="geometry">
            <mxPoint x="610.63" y="2330" as="sourcePoint" />
            <mxPoint x="650.63" y="2370" as="targetPoint" />
          </mxGeometry>
        </mxCell>
        <mxCell id="-c6-doeArxdfNpNEhUAH-341" value="D" style="ellipse;whiteSpace=wrap;html=1;aspect=fixed;fillColor=#ffe6cc;strokeColor=#d79b00;" vertex="1" parent="1">
          <mxGeometry x="505.63" y="2370" width="50" height="50" as="geometry" />
        </mxCell>
        <mxCell id="-c6-doeArxdfNpNEhUAH-342" value="E" style="ellipse;whiteSpace=wrap;html=1;aspect=fixed;fillColor=#a20025;strokeColor=#6F0000;fontColor=#ffffff;" vertex="1" parent="1">
          <mxGeometry x="630.63" y="2370" width="50" height="50" as="geometry" />
        </mxCell>
        <mxCell id="-c6-doeArxdfNpNEhUAH-343" value="" style="endArrow=classic;html=1;fillColor=#ffe6cc;strokeColor=#d79b00;" edge="1" parent="1">
          <mxGeometry width="50" height="50" relative="1" as="geometry">
            <mxPoint x="510.63" y="2410" as="sourcePoint" />
            <mxPoint x="475.63" y="2450" as="targetPoint" />
          </mxGeometry>
        </mxCell>
        <mxCell id="-c6-doeArxdfNpNEhUAH-344" value="" style="endArrow=classic;html=1;fillColor=#ffe6cc;strokeColor=#d79b00;" edge="1" parent="1">
          <mxGeometry width="50" height="50" relative="1" as="geometry">
            <mxPoint x="593.13" y="2490" as="sourcePoint" />
            <mxPoint x="561.88" y="2530" as="targetPoint" />
          </mxGeometry>
        </mxCell>
        <mxCell id="-c6-doeArxdfNpNEhUAH-345" value="F" style="ellipse;whiteSpace=wrap;html=1;aspect=fixed;fillColor=#a20025;strokeColor=#6F0000;fontColor=#ffffff;" vertex="1" parent="1">
          <mxGeometry x="429.38" y="2440" width="50" height="50" as="geometry" />
        </mxCell>
        <mxCell id="-c6-doeArxdfNpNEhUAH-346" value="G" style="ellipse;whiteSpace=wrap;html=1;aspect=fixed;fillColor=#ffe6cc;strokeColor=#d79b00;" vertex="1" parent="1">
          <mxGeometry x="569.38" y="2440" width="50" height="50" as="geometry" />
        </mxCell>
        <mxCell id="-c6-doeArxdfNpNEhUAH-347" value="H" style="ellipse;whiteSpace=wrap;html=1;aspect=fixed;fillColor=#ffe6cc;strokeColor=#d79b00;" vertex="1" parent="1">
          <mxGeometry x="515.63" y="2520" width="50" height="50" as="geometry" />
        </mxCell>
        <mxCell id="-c6-doeArxdfNpNEhUAH-348" value="" style="endArrow=classic;html=1;fillColor=#ffe6cc;strokeColor=#d79b00;" edge="1" parent="1">
          <mxGeometry width="50" height="50" relative="1" as="geometry">
            <mxPoint x="555.63" y="2410" as="sourcePoint" />
            <mxPoint x="585.63" y="2450" as="targetPoint" />
          </mxGeometry>
        </mxCell>
      </root>
    </mxGraphModel>
  </diagram>
</mxfile>
